<?xml version="1.0" encoding="UTF-8" standalone="no"?>
<svg
   xmlns:dc="http://purl.org/dc/elements/1.1/"
   xmlns:cc="http://creativecommons.org/ns#"
   xmlns:rdf="http://www.w3.org/1999/02/22-rdf-syntax-ns#"
   xmlns:svg="http://www.w3.org/2000/svg"
   xmlns="http://www.w3.org/2000/svg"
   version="1.1"
   id="svg2"
   viewBox="0 0 445.06794 562.12488"
   height="158.64413mm"
   width="125.60806mm">
  <defs
     id="defs4" />
  <metadata
     id="metadata7">
    <rdf:RDF>
      <cc:Work
         rdf:about="">
        <dc:format>image/svg+xml</dc:format>
        <dc:type
           rdf:resource="http://purl.org/dc/dcmitype/StillImage" />
        <dc:title></dc:title>
      </cc:Work>
    </rdf:RDF>
  </metadata>
  <g
     transform="translate(-152.05842,-265.16043)"
     id="layer1">
    <path
       id="path4297"
       transform="translate(152.05842,265.16043)"
       d="M 192.83984 85.246094 L 98.197266 139.88867 C 98.837112 140.87874 99.426178 141.9039 99.958984 142.96289 L 194.61328 88.3125 C 193.969 87.325144 193.37851 86.302049 192.83984 85.246094 z "
       style="color:#000000;font-style:normal;font-variant:normal;font-weight:normal;font-stretch:normal;font-size:medium;line-height:normal;font-family:sans-serif;text-indent:0;text-align:start;text-decoration:none;text-decoration-line:none;text-decoration-style:solid;text-decoration-color:#000000;letter-spacing:normal;word-spacing:normal;text-transform:none;direction:ltr;block-progression:tb;writing-mode:lr-tb;baseline-shift:baseline;text-anchor:start;white-space:normal;clip-rule:nonzero;display:inline;overflow:visible;visibility:visible;opacity:1;isolation:auto;mix-blend-mode:normal;color-interpolation:sRGB;color-interpolation-filters:linearRGB;solid-color:#000000;solid-opacity:1;fill:#ff0000;fill-opacity:1;fill-rule:nonzero;stroke:none;stroke-width:3.54330707;stroke-linecap:butt;stroke-linejoin:miter;stroke-miterlimit:4;stroke-dasharray:none;stroke-dashoffset:0;stroke-opacity:1;color-rendering:auto;image-rendering:auto;shape-rendering:auto;text-rendering:auto;enable-background:accumulate" />
    <path
       id="path4299"
       transform="translate(152.05842,265.16043)"
       d="M 72.636719 190.61523 C 71.931102 190.66048 71.220813 190.69141 70.503906 190.69141 C 70.030727 190.69141 69.562113 190.67606 69.09375 190.65625 L 69.09375 299.26953 C 69.854343 299.21843 70.61918 299.18359 71.392578 299.18359 C 71.809892 299.18359 72.22302 299.19985 72.636719 299.21484 L 72.636719 190.61523 z "
       style="color:#000000;font-style:normal;font-variant:normal;font-weight:normal;font-stretch:normal;font-size:medium;line-height:normal;font-family:sans-serif;text-indent:0;text-align:start;text-decoration:none;text-decoration-line:none;text-decoration-style:solid;text-decoration-color:#000000;letter-spacing:normal;word-spacing:normal;text-transform:none;direction:ltr;block-progression:tb;writing-mode:lr-tb;baseline-shift:baseline;text-anchor:start;white-space:normal;clip-rule:nonzero;display:inline;overflow:visible;visibility:visible;opacity:1;isolation:auto;mix-blend-mode:normal;color-interpolation:sRGB;color-interpolation-filters:linearRGB;solid-color:#000000;solid-opacity:1;fill:#ffff00;fill-opacity:1;fill-rule:nonzero;stroke:none;stroke-width:3.54330707;stroke-linecap:butt;stroke-linejoin:miter;stroke-miterlimit:4;stroke-dasharray:none;stroke-dashoffset:0;stroke-opacity:1;color-rendering:auto;image-rendering:auto;shape-rendering:auto;text-rendering:auto;enable-background:accumulate" />
    <path
       id="path4301"
       transform="translate(152.05842,265.16043)"
       d="M 340.04492 331.0918 L 105.27734 331.3125 C 105.30878 331.91033 105.32617 332.51162 105.32617 333.11719 C 105.32617 333.7009 105.31048 334.28089 105.28125 334.85742 L 340.04883 334.63672 C 340.01765 334.03912 340 333.4373 340 332.83203 C 340 332.24859 340.01594 331.66812 340.04492 331.0918 z "
       style="color:#000000;font-style:normal;font-variant:normal;font-weight:normal;font-stretch:normal;font-size:medium;line-height:normal;font-family:sans-serif;text-indent:0;text-align:start;text-decoration:none;text-decoration-line:none;text-decoration-style:solid;text-decoration-color:#000000;letter-spacing:normal;word-spacing:normal;text-transform:none;direction:ltr;block-progression:tb;writing-mode:lr-tb;baseline-shift:baseline;text-anchor:start;white-space:normal;clip-rule:nonzero;display:inline;overflow:visible;visibility:visible;opacity:1;isolation:auto;mix-blend-mode:normal;color-interpolation:sRGB;color-interpolation-filters:linearRGB;solid-color:#000000;solid-opacity:1;fill:#00ff00;fill-opacity:1;fill-rule:nonzero;stroke:none;stroke-width:3.54330707;stroke-linecap:butt;stroke-linejoin:miter;stroke-miterlimit:4;stroke-dasharray:none;stroke-dashoffset:0;stroke-opacity:1;color-rendering:auto;image-rendering:auto;shape-rendering:auto;text-rendering:auto;enable-background:accumulate" />
    <path
       id="path4303"
       transform="translate(152.05842,265.16043)"
       d="M 372.38477 191.09766 L 372.30078 298.70508 C 372.92357 298.67119 373.55049 298.65039 374.18164 298.65039 C 374.73889 298.65039 375.29298 298.66691 375.84375 298.69336 L 375.92773 191.10156 C 375.34939 191.13142 374.76732 191.14648 374.18164 191.14648 C 373.57868 191.14648 372.97993 191.12929 372.38477 191.09766 z "
       style="color:#000000;font-style:normal;font-variant:normal;font-weight:normal;font-stretch:normal;font-size:medium;line-height:normal;font-family:sans-serif;text-indent:0;text-align:start;text-decoration:none;text-decoration-line:none;text-decoration-style:solid;text-decoration-color:#000000;letter-spacing:normal;word-spacing:normal;text-transform:none;direction:ltr;block-progression:tb;writing-mode:lr-tb;baseline-shift:baseline;text-anchor:start;white-space:normal;clip-rule:nonzero;display:inline;overflow:visible;visibility:visible;opacity:1;isolation:auto;mix-blend-mode:normal;color-interpolation:sRGB;color-interpolation-filters:linearRGB;solid-color:#000000;solid-opacity:1;fill:#00ffff;fill-opacity:1;fill-rule:nonzero;stroke:none;stroke-width:3.54330707;stroke-linecap:butt;stroke-linejoin:miter;stroke-miterlimit:4;stroke-dasharray:none;stroke-dashoffset:0;stroke-opacity:1;color-rendering:auto;image-rendering:auto;shape-rendering:auto;text-rendering:auto;enable-background:accumulate" />
    <path
       id="path4305"
       transform="translate(152.05842,265.16043)"
       d="M 355.70703 186.1582 L 237.74805 390.375 C 238.80272 390.91536 239.8261 391.50677 240.81641 392.14648 L 358.77344 187.93359 C 357.71832 187.39373 356.69481 186.80173 355.70703 186.1582 z "
       style="color:#000000;font-style:normal;font-variant:normal;font-weight:normal;font-stretch:normal;font-size:medium;line-height:normal;font-family:sans-serif;text-indent:0;text-align:start;text-decoration:none;text-decoration-line:none;text-decoration-style:solid;text-decoration-color:#000000;letter-spacing:normal;word-spacing:normal;text-transform:none;direction:ltr;block-progression:tb;writing-mode:lr-tb;baseline-shift:baseline;text-anchor:start;white-space:normal;clip-rule:nonzero;display:inline;overflow:visible;visibility:visible;opacity:1;isolation:auto;mix-blend-mode:normal;color-interpolation:sRGB;color-interpolation-filters:linearRGB;solid-color:#000000;solid-opacity:1;fill:#0000ff;fill-opacity:1;fill-rule:nonzero;stroke:none;stroke-width:3.54330707;stroke-linecap:butt;stroke-linejoin:miter;stroke-miterlimit:4;stroke-dasharray:none;stroke-dashoffset:0;stroke-opacity:1;color-rendering:auto;image-rendering:auto;shape-rendering:auto;text-rendering:auto;enable-background:accumulate" />
    <path
       id="path4307"
       transform="translate(152.05842,265.16043)"
       d="m 220.74414,103.50977 -0.0547,283.30664 c 0.60721,-0.031 1.21915,-0.0449 1.83399,-0.0449 0.57291,0 1.14267,0.016 1.70898,0.043 l 0.0547,-283.30468 c -0.5842,0.0287 -1.17244,0.0449 -1.76367,0.0449 -0.59647,0 -1.19,-0.0157 -1.7793,-0.0449 z"
       style="color:#000000;font-style:normal;font-variant:normal;font-weight:normal;font-stretch:normal;font-size:medium;line-height:normal;font-family:sans-serif;text-indent:0;text-align:start;text-decoration:none;text-decoration-line:none;text-decoration-style:solid;text-decoration-color:#000000;letter-spacing:normal;word-spacing:normal;text-transform:none;direction:ltr;block-progression:tb;writing-mode:lr-tb;baseline-shift:baseline;text-anchor:start;white-space:normal;clip-rule:nonzero;display:inline;overflow:visible;visibility:visible;opacity:1;isolation:auto;mix-blend-mode:normal;color-interpolation:sRGB;color-interpolation-filters:linearRGB;solid-color:#000000;solid-opacity:1;fill:#ff00ff;fill-opacity:1;fill-rule:nonzero;stroke:none;stroke-width:3.54330707;stroke-linecap:butt;stroke-linejoin:miter;stroke-miterlimit:4;stroke-dasharray:none;stroke-dashoffset:0;stroke-opacity:1;color-rendering:auto;image-rendering:auto;shape-rendering:auto;text-rendering:auto;enable-background:accumulate" />
    <g
       id="flowRoot3336"
       style="font-style:normal;font-weight:normal;font-size:40px;line-height:125%;font-family:sans-serif;letter-spacing:0px;word-spacing:0px;fill:#808080;fill-opacity:1;stroke:none;stroke-width:1px;stroke-linecap:butt;stroke-linejoin:miter;stroke-opacity:1"
       transform="translate(-0.75231107,-3.061054)">
      <path
         id="path4499"
         style="font-style:normal;font-variant:normal;font-weight:normal;font-stretch:normal;font-family:'DejaVu Sans';-inkscape-font-specification:'DejaVu Sans';text-align:center;writing-mode:tb-rl;text-anchor:middle;fill:#808080"
         d="m 518.59458,411.33496 15.48828,0 0,3.32031 -11.875,0 0,7.14844 q 0.85937,-0.29297 1.71875,-0.42969 0.85937,-0.15625 1.71875,-0.15625 4.88281,0 7.73437,2.67578 2.85156,2.67579 2.85156,7.2461 0,4.70703 -2.92968,7.32422 -2.92969,2.59765 -8.26172,2.59765 -1.83594,0 -3.75,-0.3125 -1.89453,-0.3125 -3.92578,-0.9375 l 0,-3.96484 q 1.75781,0.95703 3.63281,1.42578 1.875,0.46875 3.96484,0.46875 3.37891,0 5.35157,-1.77734 1.97265,-1.77735 1.97265,-4.82422 0,-3.04688 -1.97265,-4.82422 -1.97266,-1.77734 -5.35157,-1.77734 -1.58203,0 -3.16406,0.35156 -1.5625,0.35156 -3.20312,1.09375 l 0,-14.64844 z" />
    </g>
    <path
       id="path3344"
       d="m 526.24023,387.44141 c -19.54816,0 -35.43164,15.88348 -35.43164,35.43164 0,19.54816 15.88348,35.43359 35.43164,35.43359 19.54816,0 35.4336,-15.88543 35.4336,-35.43359 0,-19.54816 -15.88544,-35.43164 -35.4336,-35.43164 z m 0,3.54297 c 17.6333,0 31.89063,14.25537 31.89063,31.88867 0,17.6333 -14.25733,31.89062 -31.89063,31.89062 -17.6333,0 -31.88867,-14.25732 -31.88867,-31.89062 0,-17.6333 14.25537,-31.88867 31.88867,-31.88867 z"
       style="color:#000000;font-style:normal;font-variant:normal;font-weight:normal;font-stretch:normal;font-size:medium;line-height:normal;font-family:sans-serif;text-indent:0;text-align:start;text-decoration:none;text-decoration-line:none;text-decoration-style:solid;text-decoration-color:#000000;letter-spacing:normal;word-spacing:normal;text-transform:none;direction:ltr;block-progression:tb;writing-mode:lr-tb;baseline-shift:baseline;text-anchor:start;white-space:normal;clip-rule:nonzero;display:inline;overflow:visible;visibility:visible;opacity:1;isolation:auto;mix-blend-mode:normal;color-interpolation:sRGB;color-interpolation-filters:linearRGB;solid-color:#000000;solid-opacity:1;fill:#808080;fill-opacity:1;fill-rule:nonzero;stroke:none;stroke-width:3.54314971;stroke-linecap:butt;stroke-linejoin:miter;stroke-miterlimit:4;stroke-dasharray:none;stroke-dashoffset:0;stroke-opacity:1;color-rendering:auto;image-rendering:auto;shape-rendering:auto;text-rendering:auto;enable-background:accumulate" />
    <g
       id="flowRoot3336-5"
       style="font-style:normal;font-weight:normal;font-size:40px;line-height:125%;font-family:sans-serif;letter-spacing:0px;word-spacing:0px;fill:#808080;fill-opacity:1;stroke:none;stroke-width:1px;stroke-linecap:butt;stroke-linejoin:miter;stroke-opacity:1"
       transform="translate(-152.41042,-90.620893)">
      <path
         id="path4484"
         style="font-style:normal;font-variant:normal;font-weight:normal;font-stretch:normal;font-family:'DejaVu Sans';-inkscape-font-specification:'DejaVu Sans';text-align:center;writing-mode:tb-rl;text-anchor:middle;fill:#808080"
         d="m 526.99301,413.93262 q -3.04687,0 -4.58984,3.00781 -1.52344,2.98828 -1.52344,9.00391 0,5.99609 1.52344,9.0039 1.54297,2.98828 4.58984,2.98828 3.06641,0 4.58985,-2.98828 1.54297,-3.00781 1.54297,-9.0039 0,-6.01563 -1.54297,-9.00391 -1.52344,-3.00781 -4.58985,-3.00781 z m 0,-3.125 q 4.90235,0 7.48047,3.88672 2.59766,3.86718 2.59766,11.25 0,7.36328 -2.59766,11.25 -2.57812,3.86718 -7.48047,3.86718 -4.90234,0 -7.5,-3.86718 -2.57812,-3.88672 -2.57812,-11.25 0,-7.38282 2.57812,-11.25 2.59766,-3.88672 7.5,-3.88672 z" />
    </g>
    <g
       id="flowRoot3336-1"
       style="font-style:normal;font-weight:normal;font-size:40px;line-height:125%;font-family:sans-serif;letter-spacing:0px;word-spacing:0px;fill:#808080;fill-opacity:1;stroke:none;stroke-width:1px;stroke-linecap:butt;stroke-linejoin:miter;stroke-opacity:1"
       transform="translate(-304.42978,-3.0415309)">
      <path
         id="path4487"
         style="font-style:normal;font-variant:normal;font-weight:normal;font-stretch:normal;font-family:'DejaVu Sans';-inkscape-font-specification:'DejaVu Sans';text-align:center;writing-mode:tb-rl;text-anchor:middle;fill:#808080"
         d="m 519.23911,437.1748 6.44531,0 0,-22.24609 -7.01172,1.40625 0,-3.59375 6.97266,-1.40625 3.94531,0 0,25.83984 6.44531,0 0,3.32032 -16.79687,0 0,-3.32032 z" />
    </g>
    <path
       id="path3344-6"
       d="m 222.5625,387.45898 c -19.54816,0 -35.43164,15.88544 -35.43164,35.4336 0,19.54816 15.88348,35.43359 35.43164,35.43359 19.54816,0 35.43359,-15.88543 35.43359,-35.43359 0,-19.54816 -15.88543,-35.4336 -35.43359,-35.4336 z m 0,3.54493 c 17.6333,0 31.89063,14.25537 31.89062,31.88867 0,17.6333 -14.25732,31.89062 -31.89062,31.89062 -17.6333,0 -31.88867,-14.25732 -31.88867,-31.89062 0,-17.6333 14.25537,-31.88867 31.88867,-31.88867 z"
       style="color:#000000;font-style:normal;font-variant:normal;font-weight:normal;font-stretch:normal;font-size:medium;line-height:normal;font-family:sans-serif;text-indent:0;text-align:start;text-decoration:none;text-decoration-line:none;text-decoration-style:solid;text-decoration-color:#000000;letter-spacing:normal;word-spacing:normal;text-transform:none;direction:ltr;block-progression:tb;writing-mode:lr-tb;baseline-shift:baseline;text-anchor:start;white-space:normal;clip-rule:nonzero;display:inline;overflow:visible;visibility:visible;opacity:1;isolation:auto;mix-blend-mode:normal;color-interpolation:sRGB;color-interpolation-filters:linearRGB;solid-color:#000000;solid-opacity:1;fill:#808080;fill-opacity:1;fill-rule:nonzero;stroke:none;stroke-width:3.54314971;stroke-linecap:butt;stroke-linejoin:miter;stroke-miterlimit:4;stroke-dasharray:none;stroke-dashoffset:0;stroke-opacity:1;color-rendering:auto;image-rendering:auto;shape-rendering:auto;text-rendering:auto;enable-background:accumulate" />
    <g
       id="flowRoot3336-16"
       style="font-style:normal;font-weight:normal;font-size:40px;line-height:125%;font-family:sans-serif;letter-spacing:0px;word-spacing:0px;fill:#808080;fill-opacity:1;stroke:none;stroke-width:1px;stroke-linecap:butt;stroke-linejoin:miter;stroke-opacity:1"
       transform="translate(-303.54112,172.34182)">
      <path
         id="path4490"
         style="font-style:normal;font-variant:normal;font-weight:normal;font-stretch:normal;font-family:'DejaVu Sans';-inkscape-font-specification:'DejaVu Sans';text-align:center;writing-mode:tb-rl;text-anchor:middle;fill:#808080"
         d="m 521.95395,437.1748 13.76953,0 0,3.32032 -18.51562,0 0,-3.32032 q 2.24609,-2.32421 6.11328,-6.23046 3.88672,-3.92579 4.88281,-5.0586 1.89453,-2.1289 2.63672,-3.59375 0.76172,-1.48437 0.76172,-2.91015 0,-2.32422 -1.64063,-3.78907 -1.62109,-1.46484 -4.23828,-1.46484 -1.85547,0 -3.92578,0.64453 -2.05078,0.64453 -4.39453,1.95313 l 0,-3.98438 q 2.38281,-0.95703 4.45312,-1.44531 2.07032,-0.48828 3.78907,-0.48828 4.53125,0 7.22656,2.26562 2.69531,2.26563 2.69531,6.05469 0,1.79687 -0.68359,3.41797 -0.66406,1.60156 -2.44141,3.78906 -0.48828,0.56641 -3.10547,3.28125 -2.61718,2.69531 -7.38281,7.55859 z" />
    </g>
    <path
       id="path3344-5"
       d="m 223.45117,562.84375 c -19.54816,0 -35.43164,15.88543 -35.43164,35.43359 0,19.54816 15.88348,35.43164 35.43164,35.43164 19.54816,0 35.4336,-15.88348 35.4336,-35.43164 0,-19.54816 -15.88544,-35.43359 -35.4336,-35.43359 z m 0,3.54297 c 17.6333,0 31.89063,14.25732 31.89063,31.89062 0,17.6333 -14.25733,31.88868 -31.89063,31.88868 -17.6333,0 -31.88867,-14.25538 -31.88867,-31.88868 0,-17.6333 14.25537,-31.89062 31.88867,-31.89062 z"
       style="color:#000000;font-style:normal;font-variant:normal;font-weight:normal;font-stretch:normal;font-size:medium;line-height:normal;font-family:sans-serif;text-indent:0;text-align:start;text-decoration:none;text-decoration-line:none;text-decoration-style:solid;text-decoration-color:#000000;letter-spacing:normal;word-spacing:normal;text-transform:none;direction:ltr;block-progression:tb;writing-mode:lr-tb;baseline-shift:baseline;text-anchor:start;white-space:normal;clip-rule:nonzero;display:inline;overflow:visible;visibility:visible;opacity:1;isolation:auto;mix-blend-mode:normal;color-interpolation:sRGB;color-interpolation-filters:linearRGB;solid-color:#000000;solid-opacity:1;fill:#808080;fill-opacity:1;fill-rule:nonzero;stroke:none;stroke-width:3.54314971;stroke-linecap:butt;stroke-linejoin:miter;stroke-miterlimit:4;stroke-dasharray:none;stroke-dashoffset:0;stroke-opacity:1;color-rendering:auto;image-rendering:auto;shape-rendering:auto;text-rendering:auto;enable-background:accumulate" />
    <g
       id="flowRoot3336-7"
       style="font-style:normal;font-weight:normal;font-size:40px;line-height:125%;font-family:sans-serif;letter-spacing:0px;word-spacing:0px;fill:#808080;fill-opacity:1;stroke:none;stroke-width:1px;stroke-linecap:butt;stroke-linejoin:miter;stroke-opacity:1"
       transform="translate(-152.41038,259.61845)">
      <path
         id="path4496"
         style="font-style:normal;font-variant:normal;font-weight:normal;font-stretch:normal;font-family:'DejaVu Sans';-inkscape-font-specification:'DejaVu Sans';text-align:center;writing-mode:tb-rl;text-anchor:middle;fill:#808080"
         d="m 530.50864,424.77246 q 2.83203,0.60547 4.41406,2.51953 1.60156,1.91406 1.60156,4.72656 0,4.31641 -2.96875,6.67969 -2.96875,2.36328 -8.4375,2.36328 -1.83593,0 -3.78906,-0.37109 -1.93359,-0.35156 -4.00391,-1.07422 l 0,-3.80859 q 1.64063,0.95703 3.59375,1.44531 1.95313,0.48828 4.08204,0.48828 3.71093,0 5.64453,-1.46484 1.95312,-1.46485 1.95312,-4.25782 0,-2.57812 -1.8164,-4.02343 -1.79688,-1.46485 -5.01954,-1.46485 l -3.39843,0 0,-3.24218 3.55468,0 q 2.91016,0 4.45313,-1.15235 1.54297,-1.17187 1.54297,-3.35937 0,-2.2461 -1.60156,-3.4375 -1.58204,-1.21094 -4.55079,-1.21094 -1.62109,0 -3.47656,0.35156 -1.85547,0.35156 -4.08203,1.09375 l 0,-3.51562 q 2.24609,-0.625 4.19922,-0.9375 1.97266,-0.3125 3.71094,-0.3125 4.49218,0 7.10937,2.05078 2.61719,2.03125 2.61719,5.50781 0,2.42188 -1.38672,4.10156 -1.38672,1.66016 -3.94531,2.30469 z" />
    </g>
    <g
       id="flowRoot3336-6"
       style="font-style:normal;font-weight:normal;font-size:40px;line-height:125%;font-family:sans-serif;letter-spacing:0px;word-spacing:0px;fill:#808080;fill-opacity:1;stroke:none;stroke-width:1px;stroke-linecap:butt;stroke-linejoin:miter;stroke-opacity:1"
       transform="translate(-0.75232474,172.05862)">
      <path
         id="path4493"
         style="font-style:normal;font-variant:normal;font-weight:normal;font-stretch:normal;font-family:'DejaVu Sans';-inkscape-font-specification:'DejaVu Sans';text-align:center;writing-mode:tb-rl;text-anchor:middle;fill:#808080"
         d="m 529.39536,414.77246 -9.96094,15.56641 9.96094,0 0,-15.56641 z m -1.03516,-3.4375 4.96094,0 0,19.00391 4.16015,0 0,3.28125 -4.16015,0 0,6.875 -3.92578,0 0,-6.875 -13.16407,0 0,-3.8086 12.12891,-18.47656 z" />
    </g>
    <path
       id="path3344-03"
       d="m 526.24023,562.56055 c -19.54816,0 -35.43164,15.88348 -35.43164,35.43164 0,19.54816 15.88348,35.43359 35.43164,35.43359 19.54816,0 35.4336,-15.88543 35.4336,-35.43359 0,-19.54816 -15.88544,-35.43164 -35.4336,-35.43164 z m 0,3.54297 c 17.6333,0 31.89063,14.25537 31.89063,31.88867 0,17.6333 -14.25733,31.89062 -31.89063,31.89062 -17.6333,0 -31.88867,-14.25732 -31.88867,-31.89062 0,-17.6333 14.25537,-31.88867 31.88867,-31.88867 z"
       style="color:#000000;font-style:normal;font-variant:normal;font-weight:normal;font-stretch:normal;font-size:medium;line-height:normal;font-family:sans-serif;text-indent:0;text-align:start;text-decoration:none;text-decoration-line:none;text-decoration-style:solid;text-decoration-color:#000000;letter-spacing:normal;word-spacing:normal;text-transform:none;direction:ltr;block-progression:tb;writing-mode:lr-tb;baseline-shift:baseline;text-anchor:start;white-space:normal;clip-rule:nonzero;display:inline;overflow:visible;visibility:visible;opacity:1;isolation:auto;mix-blend-mode:normal;color-interpolation:sRGB;color-interpolation-filters:linearRGB;solid-color:#000000;solid-opacity:1;fill:#808080;fill-opacity:1;fill-rule:nonzero;stroke:none;stroke-width:3.54314971;stroke-linecap:butt;stroke-linejoin:miter;stroke-miterlimit:4;stroke-dasharray:none;stroke-dashoffset:0;stroke-opacity:1;color-rendering:auto;image-rendering:auto;shape-rendering:auto;text-rendering:auto;enable-background:accumulate" />
    <g
       id="flowRoot4287"
       style="font-style:normal;font-weight:normal;font-size:40px;line-height:125%;font-family:sans-serif;letter-spacing:0px;word-spacing:0px;fill:#000000;fill-opacity:1;stroke:none;stroke-width:1px;stroke-linecap:butt;stroke-linejoin:miter;stroke-opacity:1"
       transform="translate(-20.891969,5.6971273)">
      <path
         id="path4457"
         style="text-align:center;text-anchor:middle;fill:#808080"
         d="m 275.68945,759.59262 q -3.04687,0 -4.58984,3.00782 -1.52344,2.98828 -1.52344,9.0039 0,5.9961 1.52344,9.00391 1.54297,2.98828 4.58984,2.98828 3.06641,0 4.58985,-2.98828 1.54297,-3.00781 1.54297,-9.00391 0,-6.01562 -1.54297,-9.0039 -1.52344,-3.00782 -4.58985,-3.00782 z m 0,-3.125 q 4.90235,0 7.48047,3.88672 2.59766,3.86719 2.59766,11.25 0,7.36328 -2.59766,11.25 -2.57812,3.86719 -7.48047,3.86719 -4.90234,0 -7.5,-3.86719 -2.57812,-3.88672 -2.57812,-11.25 0,-7.38281 2.57812,-11.25 2.59766,-3.88672 7.5,-3.88672 z" />
      <path
         id="path4459"
         style="text-align:center;text-anchor:middle;fill:#ff0000"
         d="m 290.39648,773.59653 10.52735,0 0,3.20312 -10.52735,0 0,-3.20312 z" />
      <path
         id="path4461"
         style="text-align:center;text-anchor:middle;fill:#808080"
         d="m 307.85742,782.83481 6.44531,0 0,-22.24609 -7.01171,1.40625 0,-3.59375 6.97265,-1.40625 3.94531,0 0,25.83984 6.44532,0 0,3.32031 -16.79688,0 0,-3.32031 z" />
      <path
         id="path4463"
         style="text-align:center;text-anchor:middle;fill:#ffff00"
         d="m 330.31836,773.59653 10.52734,0 0,3.20312 -10.52734,0 0,-3.20312 z" />
      <path
         id="path4465"
         style="text-align:center;text-anchor:middle;fill:#808080"
         d="m 350.49414,782.83481 13.76953,0 0,3.32031 -18.51562,0 0,-3.32031 q 2.24609,-2.32422 6.11328,-6.23047 3.88672,-3.92578 4.88281,-5.05859 1.89453,-2.12891 2.63672,-3.59375 0.76172,-1.48438 0.76172,-2.91016 0,-2.32422 -1.64063,-3.78906 -1.62109,-1.46484 -4.23828,-1.46484 -1.85547,0 -3.92578,0.64453 -2.05078,0.64453 -4.39453,1.95312 l 0,-3.98437 q 2.38281,-0.95703 4.45312,-1.44532 2.07032,-0.48828 3.78907,-0.48828 4.53125,0 7.22656,2.26563 2.69531,2.26562 2.69531,6.05469 0,1.79687 -0.68359,3.41796 -0.66406,1.60157 -2.44141,3.78907 -0.48828,0.5664 -3.10547,3.28125 -2.61718,2.69531 -7.38281,7.55859 z" />
      <path
         id="path4467"
         style="text-align:center;text-anchor:middle;fill:#00ff00"
         d="m 370.24023,773.59653 10.52735,0 0,3.20312 -10.52735,0 0,-3.20312 z" />
      <path
         id="path4469"
         style="text-align:center;text-anchor:middle;fill:#808080"
         d="m 397.85742,760.43247 -9.96094,15.5664 9.96094,0 0,-15.5664 z m -1.03515,-3.4375 4.96093,0 0,19.0039 4.16016,0 0,3.28125 -4.16016,0 0,6.875 -3.92578,0 0,-6.875 -13.16406,0 0,-3.80859 12.12891,-18.47656 z" />
      <path
         id="path4471"
         style="text-align:center;text-anchor:middle;fill:#00ffff"
         d="m 410.16211,773.59653 10.52734,0 0,3.20312 -10.52734,0 0,-3.20312 z" />
      <path
         id="path4473"
         style="text-align:center;text-anchor:middle;fill:#808080"
         d="m 426.97852,756.99497 15.48828,0 0,3.32031 -11.875,0 0,7.14844 q 0.85937,-0.29297 1.71875,-0.42969 0.85937,-0.15625 1.71875,-0.15625 4.88281,0 7.73437,2.67578 2.85156,2.67578 2.85156,7.24609 0,4.70704 -2.92968,7.32422 -2.92969,2.59766 -8.26172,2.59766 -1.83594,0 -3.75,-0.3125 -1.89453,-0.3125 -3.92578,-0.9375 l 0,-3.96484 q 1.75781,0.95703 3.63281,1.42578 1.875,0.46875 3.96484,0.46875 3.37891,0 5.35157,-1.77735 1.97265,-1.77734 1.97265,-4.82422 0,-3.04687 -1.97265,-4.82421 -1.97266,-1.77735 -5.35157,-1.77735 -1.58203,0 -3.16406,0.35156 -1.5625,0.35157 -3.20312,1.09375 l 0,-14.64843 z" />
      <path
         id="path4475"
         style="text-align:center;text-anchor:middle;fill:#0000ff"
         d="m 450.08398,773.59653 10.52735,0 0,3.20312 -10.52735,0 0,-3.20312 z" />
      <path
         id="path4477"
         style="text-align:center;text-anchor:middle;fill:#808080"
         d="m 478.81445,770.43247 q 2.83203,0.60547 4.41407,2.51953 1.60156,1.91406 1.60156,4.72656 0,4.31641 -2.96875,6.67969 -2.96875,2.36328 -8.4375,2.36328 -1.83594,0 -3.78906,-0.37109 -1.9336,-0.35157 -4.00391,-1.07422 l 0,-3.8086 q 1.64062,0.95703 3.59375,1.44532 1.95312,0.48828 4.08203,0.48828 3.71094,0 5.64453,-1.46485 1.95313,-1.46484 1.95313,-4.25781 0,-2.57812 -1.81641,-4.02344 -1.79687,-1.46484 -5.01953,-1.46484 l -3.39844,0 0,-3.24219 3.55469,0 q 2.91016,0 4.45312,-1.15234 1.54297,-1.17188 1.54297,-3.35938 0,-2.24609 -1.60156,-3.4375 -1.58203,-1.21093 -4.55078,-1.21093 -1.62109,0 -3.47656,0.35156 -1.85547,0.35156 -4.08203,1.09375 l 0,-3.51563 q 2.24609,-0.625 4.19921,-0.9375 1.97266,-0.3125 3.71094,-0.3125 4.49219,0 7.10938,2.05078 2.61718,2.03125 2.61718,5.50782 0,2.42187 -1.38671,4.10156 -1.38672,1.66016 -3.94532,2.30469 z" />
      <path
         id="path4479"
         style="text-align:center;text-anchor:middle;fill:#ff00ff"
         d="m 490.00586,773.59653 10.52734,0 0,3.20312 -10.52734,0 0,-3.20312 z" />
      <path
         id="path4481"
         style="text-align:center;text-anchor:middle;fill:#808080"
         d="m 515.2207,759.59262 q -3.04687,0 -4.58984,3.00782 -1.52344,2.98828 -1.52344,9.0039 0,5.9961 1.52344,9.00391 1.54297,2.98828 4.58984,2.98828 3.06641,0 4.58985,-2.98828 1.54297,-3.00781 1.54297,-9.00391 0,-6.01562 -1.54297,-9.0039 -1.52344,-3.00782 -4.58985,-3.00782 z m 0,-3.125 q 4.90235,0 7.48047,3.88672 2.59766,3.86719 2.59766,11.25 0,7.36328 -2.59766,11.25 -2.57812,3.86719 -7.48047,3.86719 -4.90234,0 -7.5,-3.86719 -2.57812,-3.88672 -2.57812,-11.25 0,-7.38281 2.57812,-11.25 2.59766,-3.88672 7.5,-3.88672 z" />
    </g>
    <path
       id="path3344-0"
       d="m 374.58203,299.88086 c -19.54816,0 -35.43164,15.88543 -35.43164,35.43359 0,19.54816 15.88348,35.43164 35.43164,35.43164 19.54816,1e-5 35.43359,-15.88348 35.43359,-35.43164 10e-6,-19.54816 -15.88542,-35.43359 -35.43359,-35.43359 z m 0,3.54297 c 17.63331,0 31.89063,14.25732 31.89063,31.89062 -1e-5,17.6333 -14.25733,31.88868 -31.89063,31.88867 -17.6333,0 -31.88867,-14.25537 -31.88867,-31.88867 0,-17.6333 14.25537,-31.89062 31.88867,-31.89062 z"
       style="color:#000000;font-style:normal;font-variant:normal;font-weight:normal;font-stretch:normal;font-size:medium;line-height:normal;font-family:sans-serif;text-indent:0;text-align:start;text-decoration:none;text-decoration-line:none;text-decoration-style:solid;text-decoration-color:#000000;letter-spacing:normal;word-spacing:normal;text-transform:none;direction:ltr;block-progression:tb;writing-mode:lr-tb;baseline-shift:baseline;text-anchor:start;white-space:normal;clip-rule:nonzero;display:inline;overflow:visible;visibility:visible;opacity:1;isolation:auto;mix-blend-mode:normal;color-interpolation:sRGB;color-interpolation-filters:linearRGB;solid-color:#000000;solid-opacity:1;fill:#808080;fill-opacity:1;fill-rule:nonzero;stroke:none;stroke-width:3.54314971;stroke-linecap:butt;stroke-linejoin:miter;stroke-miterlimit:4;stroke-dasharray:none;stroke-dashoffset:0;stroke-opacity:1;color-rendering:auto;image-rendering:auto;shape-rendering:auto;text-rendering:auto;enable-background:accumulate" />
    <path
       id="path3344-9"
       d="m 374.58203,650.11914 c -19.54816,0 -35.43164,15.88543 -35.43164,35.43359 0,19.54816 15.88348,35.4336 35.43164,35.4336 19.54816,0 35.4336,-15.88544 35.43359,-35.4336 0,-19.54816 -15.88543,-35.43359 -35.43359,-35.43359 z m 0,3.54492 c 17.6333,0 31.89063,14.25537 31.89063,31.88867 0,17.6333 -14.25733,31.89063 -31.89063,31.89063 -17.6333,0 -31.88867,-14.25733 -31.88867,-31.89063 0,-17.6333 14.25537,-31.88867 31.88867,-31.88867 z"
       style="color:#000000;font-style:normal;font-variant:normal;font-weight:normal;font-stretch:normal;font-size:medium;line-height:normal;font-family:sans-serif;text-indent:0;text-align:start;text-decoration:none;text-decoration-line:none;text-decoration-style:solid;text-decoration-color:#000000;letter-spacing:normal;word-spacing:normal;text-transform:none;direction:ltr;block-progression:tb;writing-mode:lr-tb;baseline-shift:baseline;text-anchor:start;white-space:normal;clip-rule:nonzero;display:inline;overflow:visible;visibility:visible;opacity:1;isolation:auto;mix-blend-mode:normal;color-interpolation:sRGB;color-interpolation-filters:linearRGB;solid-color:#000000;solid-opacity:1;fill:#808080;fill-opacity:1;fill-rule:nonzero;stroke:none;stroke-width:3.54314971;stroke-linecap:butt;stroke-linejoin:miter;stroke-miterlimit:4;stroke-dasharray:none;stroke-dashoffset:0;stroke-opacity:1;color-rendering:auto;image-rendering:auto;shape-rendering:auto;text-rendering:auto;enable-background:accumulate" />
  </g>
</svg>
