<?xml version="1.0" encoding="UTF-8" standalone="no"?>
<!-- Created with Inkscape (http://www.inkscape.org/) -->

<svg
   xmlns:dc="http://purl.org/dc/elements/1.1/"
   xmlns:cc="http://creativecommons.org/ns#"
   xmlns:rdf="http://www.w3.org/1999/02/22-rdf-syntax-ns#"
   xmlns:svg="http://www.w3.org/2000/svg"
   xmlns="http://www.w3.org/2000/svg"
   xmlns:sodipodi="http://sodipodi.sourceforge.net/DTD/sodipodi-0.dtd"
   xmlns:inkscape="http://www.inkscape.org/namespaces/inkscape"
   width="125.60806mm"
   height="158.64413mm"
   viewBox="0 0 445.06794 562.12488"
   id="svg2"
   version="1.1"
   inkscape:version="0.91 r13725"
   sodipodi:docname="offset.svg">
  <defs
     id="defs4" />
  <sodipodi:namedview
     id="base"
     pagecolor="#ffffff"
     bordercolor="#666666"
     borderopacity="1.0"
     inkscape:pageopacity="0.0"
     inkscape:pageshadow="2"
     inkscape:zoom="0.7"
     inkscape:cx="-99.420609"
     inkscape:cy="283.41402"
     inkscape:document-units="px"
     inkscape:current-layer="layer1"
     showgrid="false"
     inkscape:snap-center="true"
     inkscape:snap-intersection-paths="false"
     inkscape:object-nodes="true"
     inkscape:snap-text-baseline="false"
     fit-margin-top="0"
     fit-margin-left="0"
     fit-margin-right="0"
     fit-margin-bottom="0"
     inkscape:window-width="1366"
     inkscape:window-height="706"
     inkscape:window-x="-8"
     inkscape:window-y="-8"
     inkscape:window-maximized="1" />
  <metadata
     id="metadata7">
    <rdf:RDF>
      <cc:Work
         rdf:about="">
        <dc:format>image/svg+xml</dc:format>
        <dc:type
           rdf:resource="http://purl.org/dc/dcmitype/StillImage" />
        <dc:title />
      </cc:Work>
    </rdf:RDF>
  </metadata>
  <g
     inkscape:label="Camada 1"
     inkscape:groupmode="layer"
     id="layer1"
     transform="translate(-152.05842,-265.16043)">
    <path
       style="color:#000000;font-style:normal;font-variant:normal;font-weight:normal;font-stretch:normal;font-size:medium;line-height:normal;font-family:sans-serif;text-indent:0;text-align:start;text-decoration:none;text-decoration-line:none;text-decoration-style:solid;text-decoration-color:#000000;letter-spacing:normal;word-spacing:normal;text-transform:none;direction:ltr;block-progression:tb;writing-mode:lr-tb;baseline-shift:baseline;text-anchor:start;white-space:normal;clip-rule:nonzero;display:inline;overflow:visible;visibility:visible;opacity:1;isolation:auto;mix-blend-mode:normal;color-interpolation:sRGB;color-interpolation-filters:linearRGB;solid-color:#000000;solid-opacity:1;fill:#ff0000;fill-opacity:1;fill-rule:nonzero;stroke:none;stroke-width:3.54330707;stroke-linecap:butt;stroke-linejoin:miter;stroke-miterlimit:4;stroke-dasharray:none;stroke-dashoffset:0;stroke-opacity:1;color-rendering:auto;image-rendering:auto;shape-rendering:auto;text-rendering:auto;enable-background:accumulate"
       d="M 72.636719 191.32031 A 33.661495 33.661495 0 0 1 70.503906 191.39453 A 33.661495 33.661495 0 0 1 69.09375 191.32422 L 69.09375 299.53711 A 33.661495 33.661495 0 0 1 71.392578 299.45508 A 33.661495 33.661495 0 0 1 72.636719 299.51758 L 72.636719 191.32031 z "
       transform="translate(152.05842,265.16043)"
       id="path4299" />
    <path
       style="color:#000000;font-style:normal;font-variant:normal;font-weight:normal;font-stretch:normal;font-size:medium;line-height:normal;font-family:sans-serif;text-indent:0;text-align:start;text-decoration:none;text-decoration-line:none;text-decoration-style:solid;text-decoration-color:#000000;letter-spacing:normal;word-spacing:normal;text-transform:none;direction:ltr;block-progression:tb;writing-mode:lr-tb;baseline-shift:baseline;text-anchor:start;white-space:normal;clip-rule:nonzero;display:inline;overflow:visible;visibility:visible;opacity:1;isolation:auto;mix-blend-mode:normal;color-interpolation:sRGB;color-interpolation-filters:linearRGB;solid-color:#000000;solid-opacity:1;fill:#ffff00;fill-opacity:1;fill-rule:nonzero;stroke:none;stroke-width:3.54330707;stroke-linecap:butt;stroke-linejoin:miter;stroke-miterlimit:4;stroke-dasharray:none;stroke-dashoffset:0;stroke-opacity:1;color-rendering:auto;image-rendering:auto;shape-rendering:auto;text-rendering:auto;enable-background:accumulate"
       d="M 340.60938 331.0918 L 104.99023 331.3125 A 33.661495 33.661495 0 0 1 105.05469 333.11523 A 33.661495 33.661495 0 0 1 104.9668 334.85742 L 340.58594 334.63672 A 33.661495 33.661495 0 0 1 340.52148 332.83203 A 33.661495 33.661495 0 0 1 340.60938 331.0918 z "
       transform="translate(152.05842,265.16043)"
       id="path4301" />
    <path
       style="color:#000000;font-style:normal;font-variant:normal;font-weight:normal;font-stretch:normal;font-size:medium;line-height:normal;font-family:sans-serif;text-indent:0;text-align:start;text-decoration:none;text-decoration-line:none;text-decoration-style:solid;text-decoration-color:#000000;letter-spacing:normal;word-spacing:normal;text-transform:none;direction:ltr;block-progression:tb;writing-mode:lr-tb;baseline-shift:baseline;text-anchor:start;white-space:normal;clip-rule:nonzero;display:inline;overflow:visible;visibility:visible;opacity:1;isolation:auto;mix-blend-mode:normal;color-interpolation:sRGB;color-interpolation-filters:linearRGB;solid-color:#000000;solid-opacity:1;fill:#00ff00;fill-opacity:1;fill-rule:nonzero;stroke:none;stroke-width:3.54330707;stroke-linecap:butt;stroke-linejoin:miter;stroke-miterlimit:4;stroke-dasharray:none;stroke-dashoffset:0;stroke-opacity:1;color-rendering:auto;image-rendering:auto;shape-rendering:auto;text-rendering:auto;enable-background:accumulate"
       d="M 372.38281 191.28516 L 372.29883 299.23828 A 33.661495 33.661495 0 0 1 374.18164 299.17188 A 33.661495 33.661495 0 0 1 375.8418 299.25391 L 375.92578 191.3125 A 33.661495 33.661495 0 0 1 374.18164 191.375 A 33.661495 33.661495 0 0 1 372.38281 191.28516 z "
       transform="translate(152.05842,265.16043)"
       id="path4303" />
    <path
       style="color:#000000;font-style:normal;font-variant:normal;font-weight:normal;font-stretch:normal;font-size:medium;line-height:normal;font-family:sans-serif;text-indent:0;text-align:start;text-decoration:none;text-decoration-line:none;text-decoration-style:solid;text-decoration-color:#000000;letter-spacing:normal;word-spacing:normal;text-transform:none;direction:ltr;block-progression:tb;writing-mode:lr-tb;baseline-shift:baseline;text-anchor:start;white-space:normal;clip-rule:nonzero;display:inline;overflow:visible;visibility:visible;opacity:1;isolation:auto;mix-blend-mode:normal;color-interpolation:sRGB;color-interpolation-filters:linearRGB;solid-color:#000000;solid-opacity:1;fill:#00ffff;fill-opacity:1;fill-rule:nonzero;stroke:none;stroke-width:3.54330707;stroke-linecap:butt;stroke-linejoin:miter;stroke-miterlimit:4;stroke-dasharray:none;stroke-dashoffset:0;stroke-opacity:1;color-rendering:auto;image-rendering:auto;shape-rendering:auto;text-rendering:auto;enable-background:accumulate"
       d="M 355.85156 185.9082 L 237.73242 390.40234 A 33.661495 33.661495 0 0 1 240.80664 392.16602 L 358.92188 187.67773 A 33.661495 33.661495 0 0 1 355.85156 185.9082 z "
       transform="translate(152.05842,265.16043)"
       id="path4305" />
    <path
       style="color:#000000;font-style:normal;font-variant:normal;font-weight:normal;font-stretch:normal;font-size:medium;line-height:normal;font-family:sans-serif;text-indent:0;text-align:start;text-decoration:none;text-decoration-line:none;text-decoration-style:solid;text-decoration-color:#000000;letter-spacing:normal;word-spacing:normal;text-transform:none;direction:ltr;block-progression:tb;writing-mode:lr-tb;baseline-shift:baseline;text-anchor:start;white-space:normal;clip-rule:nonzero;display:inline;overflow:visible;visibility:visible;opacity:1;isolation:auto;mix-blend-mode:normal;color-interpolation:sRGB;color-interpolation-filters:linearRGB;solid-color:#000000;solid-opacity:1;fill:#0000ff;fill-opacity:1;fill-rule:nonzero;stroke:none;stroke-width:3.54330707;stroke-linecap:butt;stroke-linejoin:miter;stroke-miterlimit:4;stroke-dasharray:none;stroke-dashoffset:0;stroke-opacity:1;color-rendering:auto;image-rendering:auto;shape-rendering:auto;text-rendering:auto;enable-background:accumulate"
       d="M 220.74609 103.72461 L 220.68945 386.79688 A 33.661495 33.661495 0 0 1 222.52344 386.73047 A 33.661495 33.661495 0 0 1 224.23242 386.81641 L 224.28906 103.75195 A 33.661495 33.661495 0 0 1 222.52344 103.81445 A 33.661495 33.661495 0 0 1 220.74609 103.72461 z "
       transform="translate(152.05842,265.16043)"
       id="path4307" />
    <path
       style="color:#000000;font-style:normal;font-variant:normal;font-weight:normal;font-stretch:normal;font-size:medium;line-height:normal;font-family:sans-serif;text-indent:0;text-align:start;text-decoration:none;text-decoration-line:none;text-decoration-style:solid;text-decoration-color:#000000;letter-spacing:normal;word-spacing:normal;text-transform:none;direction:ltr;block-progression:tb;writing-mode:lr-tb;baseline-shift:baseline;text-anchor:start;white-space:normal;clip-rule:nonzero;display:inline;overflow:visible;visibility:visible;opacity:1;isolation:auto;mix-blend-mode:normal;color-interpolation:sRGB;color-interpolation-filters:linearRGB;solid-color:#000000;solid-opacity:1;fill:#ff00ff;fill-opacity:1;fill-rule:nonzero;stroke:none;stroke-width:3.54330707;stroke-linecap:butt;stroke-linejoin:miter;stroke-miterlimit:4;stroke-dasharray:none;stroke-dashoffset:0;stroke-opacity:1;color-rendering:auto;image-rendering:auto;shape-rendering:auto;text-rendering:auto;enable-background:accumulate"
       d="M 192.52734 85.425781 L 98.818359 139.5293 A 33.661495 33.661495 0 0 1 100.57031 142.60938 L 194.30664 88.490234 A 33.661495 33.661495 0 0 1 192.52734 85.425781 z "
       transform="translate(152.05842,265.16043)"
       id="path4297" />
    <g
       transform="translate(-0.75231107,-3.061054)"
       style="font-style:normal;font-weight:normal;font-size:40px;line-height:125%;font-family:sans-serif;letter-spacing:0px;word-spacing:0px;fill:#808080;fill-opacity:1;stroke:none;stroke-width:1px;stroke-linecap:butt;stroke-linejoin:miter;stroke-opacity:1"
       id="flowRoot3336">
      <path
         d="m 518.59458,411.33496 15.48828,0 0,3.32031 -11.875,0 0,7.14844 q 0.85937,-0.29297 1.71875,-0.42969 0.85937,-0.15625 1.71875,-0.15625 4.88281,0 7.73437,2.67578 2.85156,2.67579 2.85156,7.2461 0,4.70703 -2.92968,7.32422 -2.92969,2.59765 -8.26172,2.59765 -1.83594,0 -3.75,-0.3125 -1.89453,-0.3125 -3.92578,-0.9375 l 0,-3.96484 q 1.75781,0.95703 3.63281,1.42578 1.875,0.46875 3.96484,0.46875 3.37891,0 5.35157,-1.77734 1.97265,-1.77735 1.97265,-4.82422 0,-3.04688 -1.97265,-4.82422 -1.97266,-1.77734 -5.35157,-1.77734 -1.58203,0 -3.16406,0.35156 -1.5625,0.35156 -3.20312,1.09375 l 0,-14.64844 z"
         style="font-style:normal;font-variant:normal;font-weight:normal;font-stretch:normal;font-family:'DejaVu Sans';-inkscape-font-specification:'DejaVu Sans';text-align:center;writing-mode:tb-rl;text-anchor:middle;fill:#808080"
         id="path3380" />
    </g>
    <path
       style="color:#000000;font-style:normal;font-variant:normal;font-weight:normal;font-stretch:normal;font-size:medium;line-height:normal;font-family:sans-serif;text-indent:0;text-align:start;text-decoration:none;text-decoration-line:none;text-decoration-style:solid;text-decoration-color:#000000;letter-spacing:normal;word-spacing:normal;text-transform:none;direction:ltr;block-progression:tb;writing-mode:lr-tb;baseline-shift:baseline;text-anchor:start;white-space:normal;clip-rule:nonzero;display:inline;overflow:visible;visibility:visible;opacity:1;isolation:auto;mix-blend-mode:normal;color-interpolation:sRGB;color-interpolation-filters:linearRGB;solid-color:#000000;solid-opacity:1;fill:#808080;fill-opacity:1;fill-rule:nonzero;stroke:none;stroke-width:3.54314971;stroke-linecap:butt;stroke-linejoin:miter;stroke-miterlimit:4;stroke-dasharray:none;stroke-dashoffset:0;stroke-opacity:1;color-rendering:auto;image-rendering:auto;shape-rendering:auto;text-rendering:auto;enable-background:accumulate"
       d="m 526.24023,387.44141 c -19.54815,0 -35.43163,15.88348 -35.43164,35.43164 0,19.54816 15.88348,35.43359 35.43164,35.43359 19.54817,0 35.4336,-15.88543 35.4336,-35.43359 0,-19.54816 -15.88544,-35.43165 -35.4336,-35.43164 z m 0,3.54297 c 17.6333,-10e-6 31.89063,14.25537 31.89063,31.88867 0,17.6333 -14.25732,31.89062 -31.89063,31.89062 -17.6333,0 -31.88867,-14.25732 -31.88867,-31.89062 10e-6,-17.6333 14.25538,-31.88867 31.88867,-31.88867 z"
       id="path3344"
       inkscape:connector-curvature="0" />
    <g
       transform="translate(-152.41042,-90.620893)"
       style="font-style:normal;font-weight:normal;font-size:40px;line-height:125%;font-family:sans-serif;letter-spacing:0px;word-spacing:0px;fill:#808080;fill-opacity:1;stroke:none;stroke-width:1px;stroke-linecap:butt;stroke-linejoin:miter;stroke-opacity:1"
       id="flowRoot3336-5">
      <path
         d="m 526.99301,413.93262 q -3.04687,0 -4.58984,3.00781 -1.52344,2.98828 -1.52344,9.00391 0,5.99609 1.52344,9.0039 1.54297,2.98828 4.58984,2.98828 3.06641,0 4.58985,-2.98828 1.54297,-3.00781 1.54297,-9.0039 0,-6.01563 -1.54297,-9.00391 -1.52344,-3.00781 -4.58985,-3.00781 z m 0,-3.125 q 4.90235,0 7.48047,3.88672 2.59766,3.86718 2.59766,11.25 0,7.36328 -2.59766,11.25 -2.57812,3.86718 -7.48047,3.86718 -4.90234,0 -7.5,-3.86718 -2.57812,-3.88672 -2.57812,-11.25 0,-7.38282 2.57812,-11.25 2.59766,-3.88672 7.5,-3.88672 z"
         style="font-style:normal;font-variant:normal;font-weight:normal;font-stretch:normal;font-family:'DejaVu Sans';-inkscape-font-specification:'DejaVu Sans';text-align:center;writing-mode:tb-rl;text-anchor:middle;fill:#808080"
         id="path3384" />
    </g>
    <path
       style="color:#000000;font-style:normal;font-variant:normal;font-weight:normal;font-stretch:normal;font-size:medium;line-height:normal;font-family:sans-serif;text-indent:0;text-align:start;text-decoration:none;text-decoration-line:none;text-decoration-style:solid;text-decoration-color:#000000;letter-spacing:normal;word-spacing:normal;text-transform:none;direction:ltr;block-progression:tb;writing-mode:lr-tb;baseline-shift:baseline;text-anchor:start;white-space:normal;clip-rule:nonzero;display:inline;overflow:visible;visibility:visible;opacity:1;isolation:auto;mix-blend-mode:normal;color-interpolation:sRGB;color-interpolation-filters:linearRGB;solid-color:#000000;solid-opacity:1;fill:#808080;fill-opacity:1;fill-rule:nonzero;stroke:none;stroke-width:3.54314971;stroke-linecap:butt;stroke-linejoin:miter;stroke-miterlimit:4;stroke-dasharray:none;stroke-dashoffset:0;stroke-opacity:1;color-rendering:auto;image-rendering:auto;shape-rendering:auto;text-rendering:auto;enable-background:accumulate"
       d="m 374.58203,299.88086 c -19.54816,0 -35.43164,15.88543 -35.43164,35.43359 0,19.54816 15.88348,35.43164 35.43164,35.43164 19.54816,1e-5 35.43359,-15.88348 35.43359,-35.43164 10e-6,-19.54816 -15.88542,-35.43359 -35.43359,-35.43359 z m 0,3.54297 c 17.63331,0 31.89063,14.25732 31.89063,31.89062 -1e-5,17.6333 -14.25733,31.88868 -31.89063,31.88867 -17.6333,0 -31.88867,-14.25537 -31.88867,-31.88867 0,-17.6333 14.25537,-31.89062 31.88867,-31.89062 z"
       id="path3344-0"
       inkscape:connector-curvature="0" />
    <g
       transform="translate(-304.42978,-3.0415309)"
       style="font-style:normal;font-weight:normal;font-size:40px;line-height:125%;font-family:sans-serif;letter-spacing:0px;word-spacing:0px;fill:#808080;fill-opacity:1;stroke:none;stroke-width:1px;stroke-linecap:butt;stroke-linejoin:miter;stroke-opacity:1"
       id="flowRoot3336-1">
      <path
         d="m 519.23911,437.1748 6.44531,0 0,-22.24609 -7.01172,1.40625 0,-3.59375 6.97266,-1.40625 3.94531,0 0,25.83984 6.44531,0 0,3.32032 -16.79687,0 0,-3.32032 z"
         style="font-style:normal;font-variant:normal;font-weight:normal;font-stretch:normal;font-family:'DejaVu Sans';-inkscape-font-specification:'DejaVu Sans';text-align:center;writing-mode:tb-rl;text-anchor:middle;fill:#808080"
         id="path3388" />
    </g>
    <path
       style="color:#000000;font-style:normal;font-variant:normal;font-weight:normal;font-stretch:normal;font-size:medium;line-height:normal;font-family:sans-serif;text-indent:0;text-align:start;text-decoration:none;text-decoration-line:none;text-decoration-style:solid;text-decoration-color:#000000;letter-spacing:normal;word-spacing:normal;text-transform:none;direction:ltr;block-progression:tb;writing-mode:lr-tb;baseline-shift:baseline;text-anchor:start;white-space:normal;clip-rule:nonzero;display:inline;overflow:visible;visibility:visible;opacity:1;isolation:auto;mix-blend-mode:normal;color-interpolation:sRGB;color-interpolation-filters:linearRGB;solid-color:#000000;solid-opacity:1;fill:#808080;fill-opacity:1;fill-rule:nonzero;stroke:none;stroke-width:3.54314971;stroke-linecap:butt;stroke-linejoin:miter;stroke-miterlimit:4;stroke-dasharray:none;stroke-dashoffset:0;stroke-opacity:1;color-rendering:auto;image-rendering:auto;shape-rendering:auto;text-rendering:auto;enable-background:accumulate"
       d="m 222.5625,387.45898 c -19.54816,0 -35.43164,15.88543 -35.43164,35.4336 0,19.54816 15.88348,35.43359 35.43164,35.43359 19.54816,0 35.43359,-15.88544 35.43359,-35.43359 1e-5,-19.54816 -15.88543,-35.43359 -35.43359,-35.4336 z m 0,3.54493 c 17.6333,0 31.89063,14.25537 31.89062,31.88867 0,17.63329 -14.25732,31.89062 -31.89062,31.89062 -17.6333,10e-6 -31.88867,-14.25732 -31.88867,-31.89062 0,-17.63331 14.25537,-31.88868 31.88867,-31.88867 z"
       id="path3344-6"
       inkscape:connector-curvature="0" />
    <g
       transform="translate(-303.54112,172.34182)"
       style="font-style:normal;font-weight:normal;font-size:40px;line-height:125%;font-family:sans-serif;letter-spacing:0px;word-spacing:0px;fill:#808080;fill-opacity:1;stroke:none;stroke-width:1px;stroke-linecap:butt;stroke-linejoin:miter;stroke-opacity:1"
       id="flowRoot3336-16">
      <path
         d="m 521.95395,437.1748 13.76953,0 0,3.32032 -18.51562,0 0,-3.32032 q 2.24609,-2.32421 6.11328,-6.23046 3.88672,-3.92579 4.88281,-5.0586 1.89453,-2.1289 2.63672,-3.59375 0.76172,-1.48437 0.76172,-2.91015 0,-2.32422 -1.64063,-3.78907 -1.62109,-1.46484 -4.23828,-1.46484 -1.85547,0 -3.92578,0.64453 -2.05078,0.64453 -4.39453,1.95313 l 0,-3.98438 q 2.38281,-0.95703 4.45312,-1.44531 2.07032,-0.48828 3.78907,-0.48828 4.53125,0 7.22656,2.26562 2.69531,2.26563 2.69531,6.05469 0,1.79687 -0.68359,3.41797 -0.66406,1.60156 -2.44141,3.78906 -0.48828,0.56641 -3.10547,3.28125 -2.61718,2.69531 -7.38281,7.55859 z"
         style="font-style:normal;font-variant:normal;font-weight:normal;font-stretch:normal;font-family:'DejaVu Sans';-inkscape-font-specification:'DejaVu Sans';text-align:center;writing-mode:tb-rl;text-anchor:middle;fill:#808080"
         id="path3392" />
    </g>
    <path
       style="color:#000000;font-style:normal;font-variant:normal;font-weight:normal;font-stretch:normal;font-size:medium;line-height:normal;font-family:sans-serif;text-indent:0;text-align:start;text-decoration:none;text-decoration-line:none;text-decoration-style:solid;text-decoration-color:#000000;letter-spacing:normal;word-spacing:normal;text-transform:none;direction:ltr;block-progression:tb;writing-mode:lr-tb;baseline-shift:baseline;text-anchor:start;white-space:normal;clip-rule:nonzero;display:inline;overflow:visible;visibility:visible;opacity:1;isolation:auto;mix-blend-mode:normal;color-interpolation:sRGB;color-interpolation-filters:linearRGB;solid-color:#000000;solid-opacity:1;fill:#808080;fill-opacity:1;fill-rule:nonzero;stroke:none;stroke-width:3.54314971;stroke-linecap:butt;stroke-linejoin:miter;stroke-miterlimit:4;stroke-dasharray:none;stroke-dashoffset:0;stroke-opacity:1;color-rendering:auto;image-rendering:auto;shape-rendering:auto;text-rendering:auto;enable-background:accumulate"
       d="m 223.45117,562.84375 c -19.54816,0 -35.43164,15.88543 -35.43164,35.43359 0,19.54816 15.88348,35.43165 35.43164,35.43164 19.54816,0 35.43359,-15.88348 35.4336,-35.43164 0,-19.54816 -15.88544,-35.43359 -35.4336,-35.43359 z m 0,3.54297 c 17.6333,0 31.89063,14.25732 31.89063,31.89062 -1e-5,17.6333 -14.25733,31.88867 -31.89063,31.88868 -17.6333,0 -31.88867,-14.25538 -31.88867,-31.88868 0,-17.6333 14.25537,-31.89062 31.88867,-31.89062 z"
       id="path3344-5"
       inkscape:connector-curvature="0" />
    <g
       transform="translate(-152.41038,259.61845)"
       style="font-style:normal;font-weight:normal;font-size:40px;line-height:125%;font-family:sans-serif;letter-spacing:0px;word-spacing:0px;fill:#808080;fill-opacity:1;stroke:none;stroke-width:1px;stroke-linecap:butt;stroke-linejoin:miter;stroke-opacity:1"
       id="flowRoot3336-7">
      <path
         d="m 530.50864,424.77246 q 2.83203,0.60547 4.41406,2.51953 1.60156,1.91406 1.60156,4.72656 0,4.31641 -2.96875,6.67969 -2.96875,2.36328 -8.4375,2.36328 -1.83593,0 -3.78906,-0.37109 -1.93359,-0.35156 -4.00391,-1.07422 l 0,-3.80859 q 1.64063,0.95703 3.59375,1.44531 1.95313,0.48828 4.08204,0.48828 3.71093,0 5.64453,-1.46484 1.95312,-1.46485 1.95312,-4.25782 0,-2.57812 -1.8164,-4.02343 -1.79688,-1.46485 -5.01954,-1.46485 l -3.39843,0 0,-3.24218 3.55468,0 q 2.91016,0 4.45313,-1.15235 1.54297,-1.17187 1.54297,-3.35937 0,-2.2461 -1.60156,-3.4375 -1.58204,-1.21094 -4.55079,-1.21094 -1.62109,0 -3.47656,0.35156 -1.85547,0.35156 -4.08203,1.09375 l 0,-3.51562 q 2.24609,-0.625 4.19922,-0.9375 1.97266,-0.3125 3.71094,-0.3125 4.49218,0 7.10937,2.05078 2.61719,2.03125 2.61719,5.50781 0,2.42188 -1.38672,4.10156 -1.38672,1.66016 -3.94531,2.30469 z"
         style="font-style:normal;font-variant:normal;font-weight:normal;font-stretch:normal;font-family:'DejaVu Sans';-inkscape-font-specification:'DejaVu Sans';text-align:center;writing-mode:tb-rl;text-anchor:middle;fill:#808080"
         id="path3396" />
    </g>
    <path
       style="color:#000000;font-style:normal;font-variant:normal;font-weight:normal;font-stretch:normal;font-size:medium;line-height:normal;font-family:sans-serif;text-indent:0;text-align:start;text-decoration:none;text-decoration-line:none;text-decoration-style:solid;text-decoration-color:#000000;letter-spacing:normal;word-spacing:normal;text-transform:none;direction:ltr;block-progression:tb;writing-mode:lr-tb;baseline-shift:baseline;text-anchor:start;white-space:normal;clip-rule:nonzero;display:inline;overflow:visible;visibility:visible;opacity:1;isolation:auto;mix-blend-mode:normal;color-interpolation:sRGB;color-interpolation-filters:linearRGB;solid-color:#000000;solid-opacity:1;fill:#808080;fill-opacity:1;fill-rule:nonzero;stroke:none;stroke-width:3.54314971;stroke-linecap:butt;stroke-linejoin:miter;stroke-miterlimit:4;stroke-dasharray:none;stroke-dashoffset:0;stroke-opacity:1;color-rendering:auto;image-rendering:auto;shape-rendering:auto;text-rendering:auto;enable-background:accumulate"
       d="m 374.58203,650.11914 c -19.54816,0 -35.43164,15.88543 -35.43164,35.43359 0,19.54816 15.88348,35.4336 35.43164,35.4336 19.54816,0 35.43359,-15.88544 35.43359,-35.4336 10e-6,-19.54816 -15.88542,-35.43359 -35.43359,-35.43359 z m 0,3.54492 c 17.63331,0 31.89063,14.25537 31.89063,31.88867 -1e-5,17.6333 -14.25733,31.89063 -31.89063,31.89063 -17.6333,0 -31.88867,-14.25733 -31.88867,-31.89063 0,-17.6333 14.25537,-31.88866 31.88867,-31.88867 z"
       id="path3344-9"
       inkscape:connector-curvature="0" />
    <g
       transform="translate(-0.75232474,172.05862)"
       style="font-style:normal;font-weight:normal;font-size:40px;line-height:125%;font-family:sans-serif;letter-spacing:0px;word-spacing:0px;fill:#808080;fill-opacity:1;stroke:none;stroke-width:1px;stroke-linecap:butt;stroke-linejoin:miter;stroke-opacity:1"
       id="flowRoot3336-6">
      <path
         d="m 529.39536,414.77246 -9.96094,15.56641 9.96094,0 0,-15.56641 z m -1.03516,-3.4375 4.96094,0 0,19.00391 4.16015,0 0,3.28125 -4.16015,0 0,6.875 -3.92578,0 0,-6.875 -13.16407,0 0,-3.8086 12.12891,-18.47656 z"
         style="font-style:normal;font-variant:normal;font-weight:normal;font-stretch:normal;font-family:'DejaVu Sans';-inkscape-font-specification:'DejaVu Sans';text-align:center;writing-mode:tb-rl;text-anchor:middle;fill:#808080"
         id="path3400" />
    </g>
    <path
       style="color:#000000;font-style:normal;font-variant:normal;font-weight:normal;font-stretch:normal;font-size:medium;line-height:normal;font-family:sans-serif;text-indent:0;text-align:start;text-decoration:none;text-decoration-line:none;text-decoration-style:solid;text-decoration-color:#000000;letter-spacing:normal;word-spacing:normal;text-transform:none;direction:ltr;block-progression:tb;writing-mode:lr-tb;baseline-shift:baseline;text-anchor:start;white-space:normal;clip-rule:nonzero;display:inline;overflow:visible;visibility:visible;opacity:1;isolation:auto;mix-blend-mode:normal;color-interpolation:sRGB;color-interpolation-filters:linearRGB;solid-color:#000000;solid-opacity:1;fill:#808080;fill-opacity:1;fill-rule:nonzero;stroke:none;stroke-width:3.54314971;stroke-linecap:butt;stroke-linejoin:miter;stroke-miterlimit:4;stroke-dasharray:none;stroke-dashoffset:0;stroke-opacity:1;color-rendering:auto;image-rendering:auto;shape-rendering:auto;text-rendering:auto;enable-background:accumulate"
       d="m 526.24023,562.56055 c -19.54815,0 -35.43163,15.88348 -35.43164,35.43164 0,19.54816 15.88348,35.43359 35.43164,35.43359 19.54817,0 35.4336,-15.88543 35.4336,-35.43359 0,-19.54816 -15.88544,-35.43165 -35.4336,-35.43164 z m 0,3.54297 c 17.6333,-10e-6 31.89063,14.25537 31.89063,31.88867 0,17.6333 -14.25732,31.89063 -31.89063,31.89062 -17.6333,0 -31.88867,-14.25732 -31.88867,-31.89062 10e-6,-17.6333 14.25538,-31.88867 31.88867,-31.88867 z"
       id="path3344-03"
       inkscape:connector-curvature="0" />
    <g
       transform="translate(-20.891969,5.6971273)"
       style="font-style:normal;font-weight:normal;font-size:40px;line-height:125%;font-family:sans-serif;letter-spacing:0px;word-spacing:0px;fill:#000000;fill-opacity:1;stroke:none;stroke-width:1px;stroke-linecap:butt;stroke-linejoin:miter;stroke-opacity:1"
       id="flowRoot4287">
      <path
         d="m 267.93555,782.83481 6.44531,0 0,-22.24609 -7.01172,1.40625 0,-3.59375 6.97266,-1.40625 3.94531,0 0,25.83984 6.44531,0 0,3.32031 -16.79687,0 0,-3.32031 z"
         style="text-align:center;text-anchor:middle;fill:#808080"
         id="path3404" />
      <path
         d="m 290.39648,773.59653 10.52735,0 0,3.20312 -10.52735,0 0,-3.20312 z"
         style="text-align:center;text-anchor:middle;fill:#ff0000"
         id="path3406" />
      <path
         d="m 310.57227,782.83481 13.76953,0 0,3.32031 -18.51563,0 0,-3.32031 q 2.2461,-2.32422 6.11328,-6.23047 3.88672,-3.92578 4.88282,-5.05859 1.89453,-2.12891 2.63671,-3.59375 0.76172,-1.48438 0.76172,-2.91016 0,-2.32422 -1.64062,-3.78906 -1.6211,-1.46484 -4.23828,-1.46484 -1.85547,0 -3.92578,0.64453 -2.05079,0.64453 -4.39454,1.95312 l 0,-3.98437 q 2.38282,-0.95703 4.45313,-1.44532 2.07031,-0.48828 3.78906,-0.48828 4.53125,0 7.22656,2.26563 2.69532,2.26562 2.69532,6.05469 0,1.79687 -0.6836,3.41796 -0.66406,1.60157 -2.4414,3.78907 -0.48828,0.5664 -3.10547,3.28125 -2.61719,2.69531 -7.38281,7.55859 z"
         style="text-align:center;text-anchor:middle;fill:#808080"
         id="path3408" />
      <path
         d="m 330.31836,773.59653 10.52734,0 0,3.20312 -10.52734,0 0,-3.20312 z"
         style="text-align:center;text-anchor:middle;fill:#ffff00"
         id="path3410" />
      <path
         d="m 357.93555,760.43247 -9.96094,15.5664 9.96094,0 0,-15.5664 z m -1.03516,-3.4375 4.96094,0 0,19.0039 4.16015,0 0,3.28125 -4.16015,0 0,6.875 -3.92578,0 0,-6.875 -13.16407,0 0,-3.80859 12.12891,-18.47656 z"
         style="text-align:center;text-anchor:middle;fill:#808080"
         id="path3412" />
      <path
         d="m 370.24023,773.59653 10.52735,0 0,3.20312 -10.52735,0 0,-3.20312 z"
         style="text-align:center;text-anchor:middle;fill:#00ff00"
         id="path3414" />
      <path
         d="m 387.05664,756.99497 15.48828,0 0,3.32031 -11.875,0 0,7.14844 q 0.85938,-0.29297 1.71875,-0.42969 0.85938,-0.15625 1.71875,-0.15625 4.88281,0 7.73438,2.67578 2.85156,2.67578 2.85156,7.24609 0,4.70704 -2.92969,7.32422 -2.92969,2.59766 -8.26172,2.59766 -1.83593,0 -3.75,-0.3125 -1.89453,-0.3125 -3.92578,-0.9375 l 0,-3.96484 q 1.75781,0.95703 3.63281,1.42578 1.875,0.46875 3.96485,0.46875 3.3789,0 5.35156,-1.77735 1.97266,-1.77734 1.97266,-4.82422 0,-3.04687 -1.97266,-4.82421 -1.97266,-1.77735 -5.35156,-1.77735 -1.58203,0 -3.16406,0.35156 -1.5625,0.35157 -3.20313,1.09375 l 0,-14.64843 z"
         style="text-align:center;text-anchor:middle;fill:#808080"
         id="path3416" />
      <path
         d="m 410.16211,773.59653 10.52734,0 0,3.20312 -10.52734,0 0,-3.20312 z"
         style="text-align:center;text-anchor:middle;fill:#00ffff"
         id="path3418" />
      <path
         d="m 438.89258,770.43247 q 2.83203,0.60547 4.41406,2.51953 1.60156,1.91406 1.60156,4.72656 0,4.31641 -2.96875,6.67969 -2.96875,2.36328 -8.4375,2.36328 -1.83593,0 -3.78906,-0.37109 -1.93359,-0.35157 -4.00391,-1.07422 l 0,-3.8086 q 1.64063,0.95703 3.59375,1.44532 1.95313,0.48828 4.08204,0.48828 3.71093,0 5.64453,-1.46485 1.95312,-1.46484 1.95312,-4.25781 0,-2.57812 -1.8164,-4.02344 -1.79688,-1.46484 -5.01954,-1.46484 l -3.39843,0 0,-3.24219 3.55468,0 q 2.91016,0 4.45313,-1.15234 1.54297,-1.17188 1.54297,-3.35938 0,-2.24609 -1.60156,-3.4375 -1.58204,-1.21093 -4.55079,-1.21093 -1.62109,0 -3.47656,0.35156 -1.85547,0.35156 -4.08203,1.09375 l 0,-3.51563 q 2.24609,-0.625 4.19922,-0.9375 1.97266,-0.3125 3.71094,-0.3125 4.49218,0 7.10937,2.05078 2.61719,2.03125 2.61719,5.50782 0,2.42187 -1.38672,4.10156 -1.38672,1.66016 -3.94531,2.30469 z"
         style="text-align:center;text-anchor:middle;fill:#808080"
         id="path3420" />
      <path
         d="m 450.08398,773.59653 10.52735,0 0,3.20312 -10.52735,0 0,-3.20312 z"
         style="text-align:center;text-anchor:middle;fill:#0000ff"
         id="path3422" />
      <path
         d="m 475.29883,759.59262 q -3.04688,0 -4.58985,3.00782 -1.52343,2.98828 -1.52343,9.0039 0,5.9961 1.52343,9.00391 1.54297,2.98828 4.58985,2.98828 3.0664,0 4.58984,-2.98828 1.54297,-3.00781 1.54297,-9.00391 0,-6.01562 -1.54297,-9.0039 -1.52344,-3.00782 -4.58984,-3.00782 z m 0,-3.125 q 4.90234,0 7.48047,3.88672 2.59765,3.86719 2.59765,11.25 0,7.36328 -2.59765,11.25 -2.57813,3.86719 -7.48047,3.86719 -4.90235,0 -7.5,-3.86719 -2.57813,-3.88672 -2.57813,-11.25 0,-7.38281 2.57813,-11.25 2.59765,-3.88672 7.5,-3.88672 z"
         style="text-align:center;text-anchor:middle;fill:#808080"
         id="path3424" />
      <path
         d="m 490.00586,773.59653 10.52734,0 0,3.20312 -10.52734,0 0,-3.20312 z"
         style="fill:#ff00ff"
         id="path3426" />
      <path
         d="m 507.4668,782.83481 6.44531,0 0,-22.24609 -7.01172,1.40625 0,-3.59375 6.97266,-1.40625 3.94531,0 0,25.83984 6.44531,0 0,3.32031 -16.79687,0 0,-3.32031 z"
         style="text-align:center;text-anchor:middle;fill:#808080"
         id="path3428" />
    </g>
  </g>
</svg>
