<?xml version="1.0" encoding="UTF-8" standalone="no"?>
<svg
   xmlns:dc="http://purl.org/dc/elements/1.1/"
   xmlns:cc="http://creativecommons.org/ns#"
   xmlns:rdf="http://www.w3.org/1999/02/22-rdf-syntax-ns#"
   xmlns:svg="http://www.w3.org/2000/svg"
   xmlns="http://www.w3.org/2000/svg"
   xmlns:sodipodi="http://sodipodi.sourceforge.net/DTD/sodipodi-0.dtd"
   xmlns:inkscape="http://www.inkscape.org/namespaces/inkscape"
   version="1.1"
   id="svg2"
   viewBox="0 0 445.06794 562.12488"
   height="158.64413mm"
   width="125.60806mm"
   inkscape:version="0.91 r13725"
   sodipodi:docname="rotation.svg">
  <sodipodi:namedview
     pagecolor="#ffffff"
     bordercolor="#666666"
     borderopacity="1"
     objecttolerance="10"
     gridtolerance="10"
     guidetolerance="10"
     inkscape:pageopacity="0"
     inkscape:pageshadow="2"
     inkscape:window-width="1366"
     inkscape:window-height="706"
     id="namedview52"
     showgrid="false"
     inkscape:zoom="0.83967106"
     inkscape:cx="224.51316"
     inkscape:cy="345.8568"
     inkscape:window-x="-8"
     inkscape:window-y="-8"
     inkscape:window-maximized="1"
     inkscape:current-layer="svg2" />
  <defs
     id="defs4" />
  <metadata
     id="metadata7">
    <rdf:RDF>
      <cc:Work
         rdf:about="">
        <dc:format>image/svg+xml</dc:format>
        <dc:type
           rdf:resource="http://purl.org/dc/dcmitype/StillImage" />
        <dc:title />
      </cc:Work>
    </rdf:RDF>
  </metadata>
  <g
     transform="translate(-152.05842,-265.16043)"
     id="layer1">
    <path
       id="path4297"
       transform="translate(152.05842,265.16043)"
       d="M 72.738281 191.31641 A 33.661495 33.661495 0 0 1 70.503906 191.39453 A 33.661495 33.661495 0 0 1 69.195312 191.32812 L 69.519531 299.52148 A 33.661495 33.661495 0 0 1 71.392578 299.45508 A 33.661495 33.661495 0 0 1 73.0625 299.53906 L 72.738281 191.31641 z "
       style="color:#000000;font-style:normal;font-variant:normal;font-weight:normal;font-stretch:normal;font-size:medium;line-height:normal;font-family:sans-serif;text-indent:0;text-align:start;text-decoration:none;text-decoration-line:none;text-decoration-style:solid;text-decoration-color:#000000;letter-spacing:normal;word-spacing:normal;text-transform:none;direction:ltr;block-progression:tb;writing-mode:lr-tb;baseline-shift:baseline;text-anchor:start;white-space:normal;clip-rule:nonzero;display:inline;overflow:visible;visibility:visible;opacity:1;isolation:auto;mix-blend-mode:normal;color-interpolation:sRGB;color-interpolation-filters:linearRGB;solid-color:#000000;solid-opacity:1;fill:#ff0000;fill-opacity:1;fill-rule:nonzero;stroke:none;stroke-width:3.54330707;stroke-linecap:butt;stroke-linejoin:miter;stroke-miterlimit:4;stroke-dasharray:none;stroke-dashoffset:0;stroke-opacity:1;color-rendering:auto;image-rendering:auto;shape-rendering:auto;text-rendering:auto;enable-background:accumulate" />
    <path
       id="path4299"
       transform="translate(152.05842,265.16043)"
       d="M 101.35156 348.38867 A 33.661495 33.661495 0 0 1 99.583984 351.45898 L 192.55664 405.13672 A 33.661495 33.661495 0 0 1 194.32422 402.06641 L 101.35156 348.38867 z "
       style="color:#000000;font-style:normal;font-variant:normal;font-weight:normal;font-stretch:normal;font-size:medium;line-height:normal;font-family:sans-serif;text-indent:0;text-align:start;text-decoration:none;text-decoration-line:none;text-decoration-style:solid;text-decoration-color:#000000;letter-spacing:normal;word-spacing:normal;text-transform:none;direction:ltr;block-progression:tb;writing-mode:lr-tb;baseline-shift:baseline;text-anchor:start;white-space:normal;clip-rule:nonzero;display:inline;overflow:visible;visibility:visible;opacity:1;isolation:auto;mix-blend-mode:normal;color-interpolation:sRGB;color-interpolation-filters:linearRGB;solid-color:#000000;solid-opacity:1;fill:#ffff00;fill-opacity:1;fill-rule:nonzero;stroke:none;stroke-width:3.54330707;stroke-linecap:butt;stroke-linejoin:miter;stroke-miterlimit:4;stroke-dasharray:none;stroke-dashoffset:0;stroke-opacity:1;color-rendering:auto;image-rendering:auto;shape-rendering:auto;text-rendering:auto;enable-background:accumulate" />
    <path
       id="path4301"
       transform="translate(152.05842,265.16043)"
       d="M 355.82227 185.89062 L 237.72852 390.40039 A 33.661495 33.661495 0 0 1 240.80273 392.16406 L 358.89062 187.66211 A 33.661495 33.661495 0 0 1 355.82227 185.89062 z "
       style="color:#000000;font-style:normal;font-variant:normal;font-weight:normal;font-stretch:normal;font-size:medium;line-height:normal;font-family:sans-serif;text-indent:0;text-align:start;text-decoration:none;text-decoration-line:none;text-decoration-style:solid;text-decoration-color:#000000;letter-spacing:normal;word-spacing:normal;text-transform:none;direction:ltr;block-progression:tb;writing-mode:lr-tb;baseline-shift:baseline;text-anchor:start;white-space:normal;clip-rule:nonzero;display:inline;overflow:visible;visibility:visible;opacity:1;isolation:auto;mix-blend-mode:normal;color-interpolation:sRGB;color-interpolation-filters:linearRGB;solid-color:#000000;solid-opacity:1;fill:#00ff00;fill-opacity:1;fill-rule:nonzero;stroke:none;stroke-width:3.54330707;stroke-linecap:butt;stroke-linejoin:miter;stroke-miterlimit:4;stroke-dasharray:none;stroke-dashoffset:0;stroke-opacity:1;color-rendering:auto;image-rendering:auto;shape-rendering:auto;text-rendering:auto;enable-background:accumulate" />
    <path
       id="path4303"
       transform="translate(152.05842,265.16043)"
       d="M 252.49023 85.408203 A 33.661495 33.661495 0 0 1 250.72266 88.480469 L 344.21484 142.45703 A 33.661495 33.661495 0 0 1 345.98242 139.38672 L 252.49023 85.408203 z "
       style="color:#000000;font-style:normal;font-variant:normal;font-weight:normal;font-stretch:normal;font-size:medium;line-height:normal;font-family:sans-serif;text-indent:0;text-align:start;text-decoration:none;text-decoration-line:none;text-decoration-style:solid;text-decoration-color:#000000;letter-spacing:normal;word-spacing:normal;text-transform:none;direction:ltr;block-progression:tb;writing-mode:lr-tb;baseline-shift:baseline;text-anchor:start;white-space:normal;clip-rule:nonzero;display:inline;overflow:visible;visibility:visible;opacity:1;isolation:auto;mix-blend-mode:normal;color-interpolation:sRGB;color-interpolation-filters:linearRGB;solid-color:#000000;solid-opacity:1;fill:#00ffff;fill-opacity:1;fill-rule:nonzero;stroke:none;stroke-width:3.54330707;stroke-linecap:butt;stroke-linejoin:miter;stroke-miterlimit:4;stroke-dasharray:none;stroke-dashoffset:0;stroke-opacity:1;color-rendering:auto;image-rendering:auto;shape-rendering:auto;text-rendering:auto;enable-background:accumulate" />
    <path
       id="path4305"
       transform="translate(152.05842,265.16043)"
       d="M 240.85156 98.378906 A 33.661495 33.661495 0 0 1 237.78711 100.1543 L 355.76562 304.67188 A 33.661495 33.661495 0 0 1 358.82617 302.88477 L 240.85156 98.378906 z "
       style="color:#000000;font-style:normal;font-variant:normal;font-weight:normal;font-stretch:normal;font-size:medium;line-height:normal;font-family:sans-serif;text-indent:0;text-align:start;text-decoration:none;text-decoration-line:none;text-decoration-style:solid;text-decoration-color:#000000;letter-spacing:normal;word-spacing:normal;text-transform:none;direction:ltr;block-progression:tb;writing-mode:lr-tb;baseline-shift:baseline;text-anchor:start;white-space:normal;clip-rule:nonzero;display:inline;overflow:visible;visibility:visible;opacity:1;isolation:auto;mix-blend-mode:normal;color-interpolation:sRGB;color-interpolation-filters:linearRGB;solid-color:#000000;solid-opacity:1;fill:#0000ff;fill-opacity:1;fill-rule:nonzero;stroke:none;stroke-width:3.54330707;stroke-linecap:butt;stroke-linejoin:miter;stroke-miterlimit:4;stroke-dasharray:none;stroke-dashoffset:0;stroke-opacity:1;color-rendering:auto;image-rendering:auto;shape-rendering:auto;text-rendering:auto;enable-background:accumulate" />
    <path
       id="path4307"
       transform="translate(152.05842,265.16043)"
       d="M 100.48047 172.9707 A 33.661495 33.661495 0 0 1 98.714844 176.04297 L 344.20703 317.59375 A 33.661495 33.661495 0 0 1 345.97266 314.52344 L 100.48047 172.9707 z "
       style="color:#000000;font-style:normal;font-variant:normal;font-weight:normal;font-stretch:normal;font-size:medium;line-height:normal;font-family:sans-serif;text-indent:0;text-align:start;text-decoration:none;text-decoration-line:none;text-decoration-style:solid;text-decoration-color:#000000;letter-spacing:normal;word-spacing:normal;text-transform:none;direction:ltr;block-progression:tb;writing-mode:lr-tb;baseline-shift:baseline;text-anchor:start;white-space:normal;clip-rule:nonzero;display:inline;overflow:visible;visibility:visible;opacity:1;isolation:auto;mix-blend-mode:normal;color-interpolation:sRGB;color-interpolation-filters:linearRGB;solid-color:#000000;solid-opacity:1;fill:#ff00ff;fill-opacity:1;fill-rule:nonzero;stroke:none;stroke-width:3.54330707;stroke-linecap:butt;stroke-linejoin:miter;stroke-miterlimit:4;stroke-dasharray:none;stroke-dashoffset:0;stroke-opacity:1;color-rendering:auto;image-rendering:auto;shape-rendering:auto;text-rendering:auto;enable-background:accumulate" />
    <g
       transform="translate(-0.75231107,-3.061054)"
       style="font-style:normal;font-weight:normal;font-size:40px;line-height:125%;font-family:sans-serif;letter-spacing:0px;word-spacing:0px;fill:#808080;fill-opacity:1;stroke:none;stroke-width:1px;stroke-linecap:butt;stroke-linejoin:miter;stroke-opacity:1"
       id="flowRoot3336">
      <path
         d="m 518.59458,411.33496 15.48828,0 0,3.32031 -11.875,0 0,7.14844 q 0.85937,-0.29297 1.71875,-0.42969 0.85937,-0.15625 1.71875,-0.15625 4.88281,0 7.73437,2.67578 2.85156,2.67579 2.85156,7.2461 0,4.70703 -2.92968,7.32422 -2.92969,2.59765 -8.26172,2.59765 -1.83594,0 -3.75,-0.3125 -1.89453,-0.3125 -3.92578,-0.9375 l 0,-3.96484 q 1.75781,0.95703 3.63281,1.42578 1.875,0.46875 3.96484,0.46875 3.37891,0 5.35157,-1.77734 1.97265,-1.77735 1.97265,-4.82422 0,-3.04688 -1.97265,-4.82422 -1.97266,-1.77734 -5.35157,-1.77734 -1.58203,0 -3.16406,0.35156 -1.5625,0.35156 -3.20312,1.09375 l 0,-14.64844 z"
         style="font-style:normal;font-variant:normal;font-weight:normal;font-stretch:normal;font-family:'DejaVu Sans';-inkscape-font-specification:'DejaVu Sans';text-align:center;writing-mode:tb-rl;text-anchor:middle;fill:#808080"
         id="path3426" />
    </g>
    <path
       style="color:#000000;font-style:normal;font-variant:normal;font-weight:normal;font-stretch:normal;font-size:medium;line-height:normal;font-family:sans-serif;text-indent:0;text-align:start;text-decoration:none;text-decoration-line:none;text-decoration-style:solid;text-decoration-color:#000000;letter-spacing:normal;word-spacing:normal;text-transform:none;direction:ltr;block-progression:tb;writing-mode:lr-tb;baseline-shift:baseline;text-anchor:start;white-space:normal;clip-rule:nonzero;display:inline;overflow:visible;visibility:visible;opacity:1;isolation:auto;mix-blend-mode:normal;color-interpolation:sRGB;color-interpolation-filters:linearRGB;solid-color:#000000;solid-opacity:1;fill:#808080;fill-opacity:1;fill-rule:nonzero;stroke:none;stroke-width:3.54314971;stroke-linecap:butt;stroke-linejoin:miter;stroke-miterlimit:4;stroke-dasharray:none;stroke-dashoffset:0;stroke-opacity:1;color-rendering:auto;image-rendering:auto;shape-rendering:auto;text-rendering:auto;enable-background:accumulate"
       d="m 526.24023,387.44141 c -19.54815,0 -35.43163,15.88348 -35.43164,35.43164 0,19.54816 15.88348,35.43359 35.43164,35.43359 19.54817,0 35.4336,-15.88543 35.4336,-35.43359 0,-19.54816 -15.88544,-35.43165 -35.4336,-35.43164 z m 0,3.54297 c 17.6333,-10e-6 31.89063,14.25537 31.89063,31.88867 0,17.6333 -14.25732,31.89062 -31.89063,31.89062 -17.6333,0 -31.88867,-14.25732 -31.88867,-31.89062 10e-6,-17.6333 14.25538,-31.88867 31.88867,-31.88867 z"
       id="path3344"
       inkscape:connector-curvature="0" />
    <g
       transform="translate(-152.41042,-90.620893)"
       style="font-style:normal;font-weight:normal;font-size:40px;line-height:125%;font-family:sans-serif;letter-spacing:0px;word-spacing:0px;fill:#808080;fill-opacity:1;stroke:none;stroke-width:1px;stroke-linecap:butt;stroke-linejoin:miter;stroke-opacity:1"
       id="flowRoot3336-5">
      <path
         d="m 526.99301,413.93262 q -3.04687,0 -4.58984,3.00781 -1.52344,2.98828 -1.52344,9.00391 0,5.99609 1.52344,9.0039 1.54297,2.98828 4.58984,2.98828 3.06641,0 4.58985,-2.98828 1.54297,-3.00781 1.54297,-9.0039 0,-6.01563 -1.54297,-9.00391 -1.52344,-3.00781 -4.58985,-3.00781 z m 0,-3.125 q 4.90235,0 7.48047,3.88672 2.59766,3.86718 2.59766,11.25 0,7.36328 -2.59766,11.25 -2.57812,3.86718 -7.48047,3.86718 -4.90234,0 -7.5,-3.86718 -2.57812,-3.88672 -2.57812,-11.25 0,-7.38282 2.57812,-11.25 2.59766,-3.88672 7.5,-3.88672 z"
         style="font-style:normal;font-variant:normal;font-weight:normal;font-stretch:normal;font-family:'DejaVu Sans';-inkscape-font-specification:'DejaVu Sans';text-align:center;writing-mode:tb-rl;text-anchor:middle;fill:#808080"
         id="path3429" />
    </g>
    <path
       style="color:#000000;font-style:normal;font-variant:normal;font-weight:normal;font-stretch:normal;font-size:medium;line-height:normal;font-family:sans-serif;text-indent:0;text-align:start;text-decoration:none;text-decoration-line:none;text-decoration-style:solid;text-decoration-color:#000000;letter-spacing:normal;word-spacing:normal;text-transform:none;direction:ltr;block-progression:tb;writing-mode:lr-tb;baseline-shift:baseline;text-anchor:start;white-space:normal;clip-rule:nonzero;display:inline;overflow:visible;visibility:visible;opacity:1;isolation:auto;mix-blend-mode:normal;color-interpolation:sRGB;color-interpolation-filters:linearRGB;solid-color:#000000;solid-opacity:1;fill:#808080;fill-opacity:1;fill-rule:nonzero;stroke:none;stroke-width:3.54314971;stroke-linecap:butt;stroke-linejoin:miter;stroke-miterlimit:4;stroke-dasharray:none;stroke-dashoffset:0;stroke-opacity:1;color-rendering:auto;image-rendering:auto;shape-rendering:auto;text-rendering:auto;enable-background:accumulate"
       d="m 374.58203,299.88086 c -19.54816,0 -35.43164,15.88543 -35.43164,35.43359 0,19.54816 15.88348,35.43164 35.43164,35.43164 19.54816,1e-5 35.43359,-15.88348 35.43359,-35.43164 10e-6,-19.54816 -15.88542,-35.43359 -35.43359,-35.43359 z m 0,3.54297 c 17.63331,0 31.89063,14.25732 31.89063,31.89062 -1e-5,17.6333 -14.25733,31.88868 -31.89063,31.88867 -17.6333,0 -31.88867,-14.25537 -31.88867,-31.88867 0,-17.6333 14.25537,-31.89062 31.88867,-31.89062 z"
       id="path3344-0"
       inkscape:connector-curvature="0" />
    <g
       transform="translate(-304.42978,-3.0415309)"
       style="font-style:normal;font-weight:normal;font-size:40px;line-height:125%;font-family:sans-serif;letter-spacing:0px;word-spacing:0px;fill:#808080;fill-opacity:1;stroke:none;stroke-width:1px;stroke-linecap:butt;stroke-linejoin:miter;stroke-opacity:1"
       id="flowRoot3336-1">
      <path
         d="m 519.23911,437.1748 6.44531,0 0,-22.24609 -7.01172,1.40625 0,-3.59375 6.97266,-1.40625 3.94531,0 0,25.83984 6.44531,0 0,3.32032 -16.79687,0 0,-3.32032 z"
         style="font-style:normal;font-variant:normal;font-weight:normal;font-stretch:normal;font-family:'DejaVu Sans';-inkscape-font-specification:'DejaVu Sans';text-align:center;writing-mode:tb-rl;text-anchor:middle;fill:#808080"
         id="path3423" />
    </g>
    <path
       style="color:#000000;font-style:normal;font-variant:normal;font-weight:normal;font-stretch:normal;font-size:medium;line-height:normal;font-family:sans-serif;text-indent:0;text-align:start;text-decoration:none;text-decoration-line:none;text-decoration-style:solid;text-decoration-color:#000000;letter-spacing:normal;word-spacing:normal;text-transform:none;direction:ltr;block-progression:tb;writing-mode:lr-tb;baseline-shift:baseline;text-anchor:start;white-space:normal;clip-rule:nonzero;display:inline;overflow:visible;visibility:visible;opacity:1;isolation:auto;mix-blend-mode:normal;color-interpolation:sRGB;color-interpolation-filters:linearRGB;solid-color:#000000;solid-opacity:1;fill:#808080;fill-opacity:1;fill-rule:nonzero;stroke:none;stroke-width:3.54314971;stroke-linecap:butt;stroke-linejoin:miter;stroke-miterlimit:4;stroke-dasharray:none;stroke-dashoffset:0;stroke-opacity:1;color-rendering:auto;image-rendering:auto;shape-rendering:auto;text-rendering:auto;enable-background:accumulate"
       d="m 222.5625,387.45898 c -19.54816,0 -35.43164,15.88543 -35.43164,35.4336 0,19.54816 15.88348,35.43359 35.43164,35.43359 19.54816,0 35.43359,-15.88544 35.43359,-35.43359 1e-5,-19.54816 -15.88543,-35.43359 -35.43359,-35.4336 z m 0,3.54493 c 17.6333,0 31.89063,14.25537 31.89062,31.88867 0,17.63329 -14.25732,31.89062 -31.89062,31.89062 -17.6333,10e-6 -31.88867,-14.25732 -31.88867,-31.89062 0,-17.63331 14.25537,-31.88868 31.88867,-31.88867 z"
       id="path3344-6"
       inkscape:connector-curvature="0" />
    <g
       transform="translate(-303.54112,172.34182)"
       style="font-style:normal;font-weight:normal;font-size:40px;line-height:125%;font-family:sans-serif;letter-spacing:0px;word-spacing:0px;fill:#808080;fill-opacity:1;stroke:none;stroke-width:1px;stroke-linecap:butt;stroke-linejoin:miter;stroke-opacity:1"
       id="flowRoot3336-16">
      <path
         d="m 521.95395,437.1748 13.76953,0 0,3.32032 -18.51562,0 0,-3.32032 q 2.24609,-2.32421 6.11328,-6.23046 3.88672,-3.92579 4.88281,-5.0586 1.89453,-2.1289 2.63672,-3.59375 0.76172,-1.48437 0.76172,-2.91015 0,-2.32422 -1.64063,-3.78907 -1.62109,-1.46484 -4.23828,-1.46484 -1.85547,0 -3.92578,0.64453 -2.05078,0.64453 -4.39453,1.95313 l 0,-3.98438 q 2.38281,-0.95703 4.45312,-1.44531 2.07032,-0.48828 3.78907,-0.48828 4.53125,0 7.22656,2.26562 2.69531,2.26563 2.69531,6.05469 0,1.79687 -0.68359,3.41797 -0.66406,1.60156 -2.44141,3.78906 -0.48828,0.56641 -3.10547,3.28125 -2.61718,2.69531 -7.38281,7.55859 z"
         style="font-style:normal;font-variant:normal;font-weight:normal;font-stretch:normal;font-family:'DejaVu Sans';-inkscape-font-specification:'DejaVu Sans';text-align:center;writing-mode:tb-rl;text-anchor:middle;fill:#808080"
         id="path3417" />
    </g>
    <path
       style="color:#000000;font-style:normal;font-variant:normal;font-weight:normal;font-stretch:normal;font-size:medium;line-height:normal;font-family:sans-serif;text-indent:0;text-align:start;text-decoration:none;text-decoration-line:none;text-decoration-style:solid;text-decoration-color:#000000;letter-spacing:normal;word-spacing:normal;text-transform:none;direction:ltr;block-progression:tb;writing-mode:lr-tb;baseline-shift:baseline;text-anchor:start;white-space:normal;clip-rule:nonzero;display:inline;overflow:visible;visibility:visible;opacity:1;isolation:auto;mix-blend-mode:normal;color-interpolation:sRGB;color-interpolation-filters:linearRGB;solid-color:#000000;solid-opacity:1;fill:#808080;fill-opacity:1;fill-rule:nonzero;stroke:none;stroke-width:3.54314971;stroke-linecap:butt;stroke-linejoin:miter;stroke-miterlimit:4;stroke-dasharray:none;stroke-dashoffset:0;stroke-opacity:1;color-rendering:auto;image-rendering:auto;shape-rendering:auto;text-rendering:auto;enable-background:accumulate"
       d="m 223.45117,562.84375 c -19.54816,0 -35.43164,15.88543 -35.43164,35.43359 0,19.54816 15.88348,35.43165 35.43164,35.43164 19.54816,0 35.43359,-15.88348 35.4336,-35.43164 0,-19.54816 -15.88544,-35.43359 -35.4336,-35.43359 z m 0,3.54297 c 17.6333,0 31.89063,14.25732 31.89063,31.89062 -1e-5,17.6333 -14.25733,31.88867 -31.89063,31.88868 -17.6333,0 -31.88867,-14.25538 -31.88867,-31.88868 0,-17.6333 14.25537,-31.89062 31.88867,-31.89062 z"
       id="path3344-5"
       inkscape:connector-curvature="0" />
    <g
       transform="translate(-152.41038,259.61845)"
       style="font-style:normal;font-weight:normal;font-size:40px;line-height:125%;font-family:sans-serif;letter-spacing:0px;word-spacing:0px;fill:#808080;fill-opacity:1;stroke:none;stroke-width:1px;stroke-linecap:butt;stroke-linejoin:miter;stroke-opacity:1"
       id="flowRoot3336-7">
      <path
         d="m 530.50864,424.77246 q 2.83203,0.60547 4.41406,2.51953 1.60156,1.91406 1.60156,4.72656 0,4.31641 -2.96875,6.67969 -2.96875,2.36328 -8.4375,2.36328 -1.83593,0 -3.78906,-0.37109 -1.93359,-0.35156 -4.00391,-1.07422 l 0,-3.80859 q 1.64063,0.95703 3.59375,1.44531 1.95313,0.48828 4.08204,0.48828 3.71093,0 5.64453,-1.46484 1.95312,-1.46485 1.95312,-4.25782 0,-2.57812 -1.8164,-4.02343 -1.79688,-1.46485 -5.01954,-1.46485 l -3.39843,0 0,-3.24218 3.55468,0 q 2.91016,0 4.45313,-1.15235 1.54297,-1.17187 1.54297,-3.35937 0,-2.2461 -1.60156,-3.4375 -1.58204,-1.21094 -4.55079,-1.21094 -1.62109,0 -3.47656,0.35156 -1.85547,0.35156 -4.08203,1.09375 l 0,-3.51562 q 2.24609,-0.625 4.19922,-0.9375 1.97266,-0.3125 3.71094,-0.3125 4.49218,0 7.10937,2.05078 2.61719,2.03125 2.61719,5.50781 0,2.42188 -1.38672,4.10156 -1.38672,1.66016 -3.94531,2.30469 z"
         style="font-style:normal;font-variant:normal;font-weight:normal;font-stretch:normal;font-family:'DejaVu Sans';-inkscape-font-specification:'DejaVu Sans';text-align:center;writing-mode:tb-rl;text-anchor:middle;fill:#808080"
         id="path3414" />
    </g>
    <path
       style="color:#000000;font-style:normal;font-variant:normal;font-weight:normal;font-stretch:normal;font-size:medium;line-height:normal;font-family:sans-serif;text-indent:0;text-align:start;text-decoration:none;text-decoration-line:none;text-decoration-style:solid;text-decoration-color:#000000;letter-spacing:normal;word-spacing:normal;text-transform:none;direction:ltr;block-progression:tb;writing-mode:lr-tb;baseline-shift:baseline;text-anchor:start;white-space:normal;clip-rule:nonzero;display:inline;overflow:visible;visibility:visible;opacity:1;isolation:auto;mix-blend-mode:normal;color-interpolation:sRGB;color-interpolation-filters:linearRGB;solid-color:#000000;solid-opacity:1;fill:#808080;fill-opacity:1;fill-rule:nonzero;stroke:none;stroke-width:3.54314971;stroke-linecap:butt;stroke-linejoin:miter;stroke-miterlimit:4;stroke-dasharray:none;stroke-dashoffset:0;stroke-opacity:1;color-rendering:auto;image-rendering:auto;shape-rendering:auto;text-rendering:auto;enable-background:accumulate"
       d="m 374.58203,650.11914 c -19.54816,0 -35.43164,15.88543 -35.43164,35.43359 0,19.54816 15.88348,35.4336 35.43164,35.4336 19.54816,0 35.43359,-15.88544 35.43359,-35.4336 10e-6,-19.54816 -15.88542,-35.43359 -35.43359,-35.43359 z m 0,3.54492 c 17.63331,0 31.89063,14.25537 31.89063,31.88867 -1e-5,17.6333 -14.25733,31.89063 -31.89063,31.89063 -17.6333,0 -31.88867,-14.25733 -31.88867,-31.89063 0,-17.6333 14.25537,-31.88866 31.88867,-31.88867 z"
       id="path3344-9"
       inkscape:connector-curvature="0" />
    <g
       transform="translate(-0.75232474,172.05862)"
       style="font-style:normal;font-weight:normal;font-size:40px;line-height:125%;font-family:sans-serif;letter-spacing:0px;word-spacing:0px;fill:#808080;fill-opacity:1;stroke:none;stroke-width:1px;stroke-linecap:butt;stroke-linejoin:miter;stroke-opacity:1"
       id="flowRoot3336-6">
      <path
         d="m 529.39536,414.77246 -9.96094,15.56641 9.96094,0 0,-15.56641 z m -1.03516,-3.4375 4.96094,0 0,19.00391 4.16015,0 0,3.28125 -4.16015,0 0,6.875 -3.92578,0 0,-6.875 -13.16407,0 0,-3.8086 12.12891,-18.47656 z"
         style="font-style:normal;font-variant:normal;font-weight:normal;font-stretch:normal;font-family:'DejaVu Sans';-inkscape-font-specification:'DejaVu Sans';text-align:center;writing-mode:tb-rl;text-anchor:middle;fill:#808080"
         id="path3420" />
    </g>
    <path
       style="color:#000000;font-style:normal;font-variant:normal;font-weight:normal;font-stretch:normal;font-size:medium;line-height:normal;font-family:sans-serif;text-indent:0;text-align:start;text-decoration:none;text-decoration-line:none;text-decoration-style:solid;text-decoration-color:#000000;letter-spacing:normal;word-spacing:normal;text-transform:none;direction:ltr;block-progression:tb;writing-mode:lr-tb;baseline-shift:baseline;text-anchor:start;white-space:normal;clip-rule:nonzero;display:inline;overflow:visible;visibility:visible;opacity:1;isolation:auto;mix-blend-mode:normal;color-interpolation:sRGB;color-interpolation-filters:linearRGB;solid-color:#000000;solid-opacity:1;fill:#808080;fill-opacity:1;fill-rule:nonzero;stroke:none;stroke-width:3.54314971;stroke-linecap:butt;stroke-linejoin:miter;stroke-miterlimit:4;stroke-dasharray:none;stroke-dashoffset:0;stroke-opacity:1;color-rendering:auto;image-rendering:auto;shape-rendering:auto;text-rendering:auto;enable-background:accumulate"
       d="m 526.24023,562.56055 c -19.54815,0 -35.43163,15.88348 -35.43164,35.43164 0,19.54816 15.88348,35.43359 35.43164,35.43359 19.54817,0 35.4336,-15.88543 35.4336,-35.43359 0,-19.54816 -15.88544,-35.43165 -35.4336,-35.43164 z m 0,3.54297 c 17.6333,-10e-6 31.89063,14.25537 31.89063,31.88867 0,17.6333 -14.25732,31.89063 -31.89063,31.89062 -17.6333,0 -31.88867,-14.25732 -31.88867,-31.89062 10e-6,-17.6333 14.25538,-31.88867 31.88867,-31.88867 z"
       id="path3344-03"
       inkscape:connector-curvature="0" />
    <g
       transform="translate(-20.891969,5.6971273)"
       style="font-style:normal;font-weight:normal;font-size:40px;line-height:125%;font-family:sans-serif;letter-spacing:0px;word-spacing:0px;fill:#000000;fill-opacity:1;stroke:none;stroke-width:1px;stroke-linecap:butt;stroke-linejoin:miter;stroke-opacity:1"
       id="flowRoot4287">
      <path
         d="m 267.93555,782.83481 6.44531,0 0,-22.24609 -7.01172,1.40625 0,-3.59375 6.97266,-1.40625 3.94531,0 0,25.83984 6.44531,0 0,3.32031 -16.79687,0 0,-3.32031 z"
         style="text-align:center;text-anchor:middle;fill:#808080"
         id="path3381" />
      <path
         d="m 290.39648,773.59653 10.52735,0 0,3.20312 -10.52735,0 0,-3.20312 z"
         style="text-align:center;text-anchor:middle;fill:#ff0000"
         id="path3383" />
      <path
         d="m 310.57227,782.83481 13.76953,0 0,3.32031 -18.51563,0 0,-3.32031 q 2.2461,-2.32422 6.11328,-6.23047 3.88672,-3.92578 4.88282,-5.05859 1.89453,-2.12891 2.63671,-3.59375 0.76172,-1.48438 0.76172,-2.91016 0,-2.32422 -1.64062,-3.78906 -1.6211,-1.46484 -4.23828,-1.46484 -1.85547,0 -3.92578,0.64453 -2.05079,0.64453 -4.39454,1.95312 l 0,-3.98437 q 2.38282,-0.95703 4.45313,-1.44532 2.07031,-0.48828 3.78906,-0.48828 4.53125,0 7.22656,2.26563 2.69532,2.26562 2.69532,6.05469 0,1.79687 -0.6836,3.41796 -0.66406,1.60157 -2.4414,3.78907 -0.48828,0.5664 -3.10547,3.28125 -2.61719,2.69531 -7.38281,7.55859 z"
         style="text-align:center;text-anchor:middle;fill:#808080"
         id="path3385" />
      <path
         d="m 330.31836,773.59653 10.52734,0 0,3.20312 -10.52734,0 0,-3.20312 z"
         style="text-align:center;text-anchor:middle;fill:#ffff00"
         id="path3387" />
      <path
         d="m 359.04883,770.43247 q 2.83203,0.60547 4.41406,2.51953 1.60156,1.91406 1.60156,4.72656 0,4.31641 -2.96875,6.67969 -2.96875,2.36328 -8.4375,2.36328 -1.83593,0 -3.78906,-0.37109 -1.93359,-0.35157 -4.00391,-1.07422 l 0,-3.8086 q 1.64063,0.95703 3.59375,1.44532 1.95313,0.48828 4.08204,0.48828 3.71093,0 5.64453,-1.46485 1.95312,-1.46484 1.95312,-4.25781 0,-2.57812 -1.8164,-4.02344 -1.79688,-1.46484 -5.01954,-1.46484 l -3.39843,0 0,-3.24219 3.55468,0 q 2.91016,0 4.45313,-1.15234 1.54297,-1.17188 1.54297,-3.35938 0,-2.24609 -1.60156,-3.4375 -1.58204,-1.21093 -4.55079,-1.21093 -1.62109,0 -3.47656,0.35156 -1.85547,0.35156 -4.08203,1.09375 l 0,-3.51563 q 2.24609,-0.625 4.19922,-0.9375 1.97266,-0.3125 3.71094,-0.3125 4.49218,0 7.10937,2.05078 2.61719,2.03125 2.61719,5.50782 0,2.42187 -1.38672,4.10156 -1.38672,1.66016 -3.94531,2.30469 z"
         style="text-align:center;text-anchor:middle;fill:#808080"
         id="path3389" />
      <path
         d="m 370.24023,773.59653 10.52735,0 0,3.20312 -10.52735,0 0,-3.20312 z"
         style="text-align:center;text-anchor:middle;fill:#00ff00"
         id="path3391" />
      <path
         d="m 387.05664,756.99497 15.48828,0 0,3.32031 -11.875,0 0,7.14844 q 0.85938,-0.29297 1.71875,-0.42969 0.85938,-0.15625 1.71875,-0.15625 4.88281,0 7.73438,2.67578 2.85156,2.67578 2.85156,7.24609 0,4.70704 -2.92969,7.32422 -2.92969,2.59766 -8.26172,2.59766 -1.83593,0 -3.75,-0.3125 -1.89453,-0.3125 -3.92578,-0.9375 l 0,-3.96484 q 1.75781,0.95703 3.63281,1.42578 1.875,0.46875 3.96485,0.46875 3.3789,0 5.35156,-1.77735 1.97266,-1.77734 1.97266,-4.82422 0,-3.04687 -1.97266,-4.82421 -1.97266,-1.77735 -5.35156,-1.77735 -1.58203,0 -3.16406,0.35156 -1.5625,0.35157 -3.20313,1.09375 l 0,-14.64843 z"
         style="text-align:center;text-anchor:middle;fill:#808080"
         id="path3393" />
      <path
         d="m 410.16211,773.59653 10.52734,0 0,3.20312 -10.52734,0 0,-3.20312 z"
         style="text-align:center;text-anchor:middle;fill:#00ffff"
         id="path3395" />
      <path
         d="m 435.37695,759.59262 q -3.04687,0 -4.58984,3.00782 -1.52344,2.98828 -1.52344,9.0039 0,5.9961 1.52344,9.00391 1.54297,2.98828 4.58984,2.98828 3.06641,0 4.58985,-2.98828 1.54297,-3.00781 1.54297,-9.00391 0,-6.01562 -1.54297,-9.0039 -1.52344,-3.00782 -4.58985,-3.00782 z m 0,-3.125 q 4.90235,0 7.48047,3.88672 2.59766,3.86719 2.59766,11.25 0,7.36328 -2.59766,11.25 -2.57812,3.86719 -7.48047,3.86719 -4.90234,0 -7.5,-3.86719 -2.57812,-3.88672 -2.57812,-11.25 0,-7.38281 2.57812,-11.25 2.59766,-3.88672 7.5,-3.88672 z"
         style="text-align:center;text-anchor:middle;fill:#808080"
         id="path3397" />
      <path
         d="m 450.08398,773.59653 10.52735,0 0,3.20312 -10.52735,0 0,-3.20312 z"
         style="text-align:center;text-anchor:middle;fill:#0000ff"
         id="path3399" />
      <path
         d="m 477.70117,760.43247 -9.96094,15.5664 9.96094,0 0,-15.5664 z m -1.03515,-3.4375 4.96093,0 0,19.0039 4.16016,0 0,3.28125 -4.16016,0 0,6.875 -3.92578,0 0,-6.875 -13.16406,0 0,-3.80859 12.12891,-18.47656 z"
         style="text-align:center;text-anchor:middle;fill:#808080"
         id="path3401" />
      <path
         d="m 490.00586,773.59653 10.52734,0 0,3.20312 -10.52734,0 0,-3.20312 z"
         style="text-align:center;text-anchor:middle;fill:#ff00ff"
         id="path3403" />
      <path
         d="m 507.4668,782.83481 6.44531,0 0,-22.24609 -7.01172,1.40625 0,-3.59375 6.97266,-1.40625 3.94531,0 0,25.83984 6.44531,0 0,3.32031 -16.79687,0 0,-3.32031 z"
         style="text-align:center;text-anchor:middle;fill:#808080"
         id="path3405" />
    </g>
  </g>
</svg>
